<?xml version="1.0" encoding="utf-8" standalone="no"?>
<!DOCTYPE svg PUBLIC "-//W3C//DTD SVG 1.1//EN"
  "http://www.w3.org/Graphics/SVG/1.1/DTD/svg11.dtd">
<svg xmlns:xlink="http://www.w3.org/1999/xlink" width="1440pt" height="1440pt" viewBox="0 0 1440 1440" xmlns="http://www.w3.org/2000/svg" version="1.1">
 <metadata>
  <rdf:RDF xmlns:dc="http://purl.org/dc/elements/1.1/" xmlns:cc="http://creativecommons.org/ns#" xmlns:rdf="http://www.w3.org/1999/02/22-rdf-syntax-ns#">
   <cc:Work>
    <dc:type rdf:resource="http://purl.org/dc/dcmitype/StillImage"/>
    <dc:date>2023-03-30T00:16:54.236828</dc:date>
    <dc:format>image/svg+xml</dc:format>
    <dc:creator>
     <cc:Agent>
      <dc:title>Matplotlib v3.6.2, https://matplotlib.org/</dc:title>
     </cc:Agent>
    </dc:creator>
   </cc:Work>
  </rdf:RDF>
 </metadata>
 <defs>
  <style type="text/css">*{stroke-linejoin: round; stroke-linecap: butt}</style>
 </defs>
 <g id="figure_1">
  <g id="patch_1">
   <path d="M 0 1440 
L 1440 1440 
L 1440 0 
L 0 0 
L 0 1440 
z
" style="fill: none"/>
  </g>
  <g id="patch_2">
   <path d="M 10.8 1429.2 
L 1429.2 1429.2 
L 1429.2 10.8 
L 10.8 10.8 
L 10.8 1429.2 
z
" style="fill: none"/>
  </g>
  <g id="axes_1">
   <g id="Poly3DCollection_1">
    <path d="M 666.95868 625.673138 
L 733.797169 657.502064 
L 579.026147 659.612666 
z
" clip-path="url(#p1c613c69bd)" style="fill: #196091"/>
    <path d="M 736.416311 628.933172 
L 733.797169 657.502064 
L 666.95868 625.673138 
z
" clip-path="url(#p1c613c69bd)" style="fill: #155079"/>
    <path d="M 733.797169 657.502064 
L 736.416311 628.933172 
L 840.106477 630.926346 
z
" clip-path="url(#p1c613c69bd)" style="fill: #1a6598"/>
    <path d="M 922.348375 668.302534 
L 733.797169 657.502064 
L 840.106477 630.926346 
z
" clip-path="url(#p1c613c69bd)" style="fill: #1a6497"/>
    <path d="M 666.95868 625.673138 
L 579.026147 659.612666 
L 607.690268 600.202606 
z
" clip-path="url(#p1c613c69bd)" style="fill: #1a6395"/>
    <path d="M 922.348375 668.302534 
L 944.264363 744.314163 
L 733.797169 657.502064 
z
" clip-path="url(#p1c613c69bd)" style="fill: #13476b"/>
    <path d="M 736.416311 628.933172 
L 666.95868 625.673138 
L 681.727996 569.764925 
z
" clip-path="url(#p1c613c69bd)" style="fill: #134a70"/>
    <path d="M 505.510696 701.666399 
L 469.971115 576.464104 
L 579.026147 659.612666 
z
" clip-path="url(#p1c613c69bd)" style="fill: #124467"/>
    <path d="M 736.416311 628.933172 
L 681.727996 569.764925 
L 786.146738 511.594416 
z
" clip-path="url(#p1c613c69bd)" style="fill: #175986"/>
    <path d="M 733.797169 657.502064 
L 1056.631581 814.229539 
L 579.026147 659.612666 
z
" clip-path="url(#p1c613c69bd)" style="fill: #113f60"/>
    <path d="M 681.727996 569.764925 
L 666.95868 625.673138 
L 607.690268 600.202606 
z
" clip-path="url(#p1c613c69bd)" style="fill: #175886"/>
    <path d="M 861.774143 545.987473 
L 840.106477 630.926346 
L 736.416311 628.933172 
z
" clip-path="url(#p1c613c69bd)" style="fill: #196193"/>
    <path d="M 505.510696 701.666399 
L 579.026147 659.612666 
L 495.09068 780.864548 
z
" clip-path="url(#p1c613c69bd)" style="fill: #114060"/>
    <path d="M 861.774143 545.987473 
L 736.416311 628.933172 
L 786.146738 511.594416 
z
" clip-path="url(#p1c613c69bd)" style="fill: #196091"/>
    <path d="M 579.026147 659.612666 
L 507.473989 583.340532 
L 607.690268 600.202606 
z
" clip-path="url(#p1c613c69bd)" style="fill: #155078"/>
    <path d="M 922.348375 668.302534 
L 840.106477 630.926346 
L 916.455113 678.869059 
z
" clip-path="url(#p1c613c69bd)" style="fill: #1e71ac"/>
    <path d="M 681.727996 569.764925 
L 607.690268 600.202606 
L 630.915461 493.610532 
z
" clip-path="url(#p1c613c69bd)" style="fill: #175a87"/>
    <path d="M 944.264363 744.314163 
L 1056.631581 814.229539 
L 733.797169 657.502064 
z
" clip-path="url(#p1c613c69bd)" style="fill: #103f5f"/>
    <path d="M 916.455113 678.869059 
L 944.264363 744.314163 
L 922.348375 668.302534 
z
" clip-path="url(#p1c613c69bd)" style="fill: #1f76b3"/>
    <path d="M 579.026147 659.612666 
L 469.971115 576.464104 
L 507.473989 583.340532 
z
" clip-path="url(#p1c613c69bd)" style="fill: #1d6fa7"/>
    <path d="M 630.915461 493.610532 
L 786.146738 511.594416 
L 681.727996 569.764925 
z
" clip-path="url(#p1c613c69bd)" style="fill: #175885"/>
    <path d="M 916.455113 678.869059 
L 840.106477 630.926346 
L 861.774143 545.987473 
z
" clip-path="url(#p1c613c69bd)" style="fill: #1b679c"/>
    <path d="M 579.026147 659.612666 
L 1056.631581 814.229539 
L 495.09068 780.864548 
z
" clip-path="url(#p1c613c69bd)" style="fill: #114060"/>
    <path d="M 469.971115 576.464104 
L 505.510696 701.666399 
L 418.428569 654.653033 
z
" clip-path="url(#p1c613c69bd)" style="fill: #0e3652"/>
    <path d="M 418.428569 654.653033 
L 505.510696 701.666399 
L 495.09068 780.864548 
z
" clip-path="url(#p1c613c69bd)" style="fill: #0a283d"/>
    <path d="M 804.648365 463.022236 
L 861.774143 545.987473 
L 786.146738 511.594416 
z
" clip-path="url(#p1c613c69bd)" style="fill: #1c6ba1"/>
    <path d="M 786.146738 511.594416 
L 630.915461 493.610532 
L 739.012107 464.232579 
z
" clip-path="url(#p1c613c69bd)" style="fill: #185c8b"/>
    <path d="M 1024.05265 745.856772 
L 1056.631581 814.229539 
L 944.264363 744.314163 
z
" clip-path="url(#p1c613c69bd)" style="fill: #16537e"/>
    <path d="M 971.737311 737.623923 
L 1024.05265 745.856772 
L 944.264363 744.314163 
z
" clip-path="url(#p1c613c69bd)" style="fill: #1b669a"/>
    <path d="M 492.718266 543.743222 
L 630.915461 493.610532 
L 607.690268 600.202606 
z
" clip-path="url(#p1c613c69bd)" style="fill: #144c72"/>
    <path d="M 944.264363 744.314163 
L 916.455113 678.869059 
L 971.737311 737.623923 
z
" clip-path="url(#p1c613c69bd)" style="fill: #1e73ae"/>
    <path d="M 804.648365 463.022236 
L 786.146738 511.594416 
L 739.012107 464.232579 
z
" clip-path="url(#p1c613c69bd)" style="fill: #1b689e"/>
    <path d="M 861.774143 545.987473 
L 930.283764 632.588635 
L 916.455113 678.869059 
z
" clip-path="url(#p1c613c69bd)" style="fill: #1e72ac"/>
    <path d="M 492.718266 543.743222 
L 607.690268 600.202606 
L 507.473989 583.340532 
z
" clip-path="url(#p1c613c69bd)" style="fill: #144c72"/>
    <path d="M 1024.05265 745.856772 
L 971.737311 737.623923 
L 1056.631581 814.229539 
z
" clip-path="url(#p1c613c69bd)" style="fill: #1e72ad"/>
    <path d="M 881.43944 504.651338 
L 861.774143 545.987473 
L 804.648365 463.022236 
z
" clip-path="url(#p1c613c69bd)" style="fill: #1c6ca4"/>
    <path d="M 861.774143 545.987473 
L 881.43944 504.651338 
L 930.283764 632.588635 
z
" clip-path="url(#p1c613c69bd)" style="fill: #1e73ae"/>
    <path d="M 580.832936 843.896998 
L 495.09068 780.864548 
L 1056.631581 814.229539 
z
" clip-path="url(#p1c613c69bd)" style="fill: #103f60"/>
    <path d="M 685.508351 448.86308 
L 739.012107 464.232579 
L 630.915461 493.610532 
z
" clip-path="url(#p1c613c69bd)" style="fill: #185c8b"/>
    <path d="M 507.473989 583.340532 
L 469.971115 576.464104 
L 421.58676 631.428648 
z
" clip-path="url(#p1c613c69bd)" style="fill: #175885"/>
    <path d="M 421.58676 631.428648 
L 469.971115 576.464104 
L 418.428569 654.653033 
z
" clip-path="url(#p1c613c69bd)" style="fill: #0f3956"/>
    <path d="M 421.699986 717.377316 
L 418.428569 654.653033 
L 495.09068 780.864548 
z
" clip-path="url(#p1c613c69bd)" style="fill: #0a273b"/>
    <path d="M 685.508351 448.86308 
L 804.648365 463.022236 
L 739.012107 464.232579 
z
" clip-path="url(#p1c613c69bd)" style="fill: #1b669b"/>
    <path d="M 916.455113 678.869059 
L 958.973051 750.023723 
L 971.737311 737.623923 
z
" clip-path="url(#p1c613c69bd)" style="fill: #1e74af"/>
    <path d="M 580.832936 843.896998 
L 504.339623 808.470449 
L 495.09068 780.864548 
z
" clip-path="url(#p1c613c69bd)" style="fill: #0b283d"/>
    <path d="M 930.283764 632.588635 
L 958.973051 750.023723 
L 916.455113 678.869059 
z
" clip-path="url(#p1c613c69bd)" style="fill: #1e72ad"/>
    <path d="M 912.249408 842.484528 
L 1056.631581 814.229539 
L 971.737311 737.623923 
z
" clip-path="url(#p1c613c69bd)" style="fill: #185b8a"/>
    <path d="M 685.508351 448.86308 
L 630.915461 493.610532 
L 544.204587 473.767835 
z
" clip-path="url(#p1c613c69bd)" style="fill: #185b89"/>
    <path d="M 544.204587 473.767835 
L 630.915461 493.610532 
L 492.718266 543.743222 
z
" clip-path="url(#p1c613c69bd)" style="fill: #144d75"/>
    <path d="M 421.699986 717.377316 
L 495.09068 780.864548 
L 457.925284 720.149575 
z
" clip-path="url(#p1c613c69bd)" style="fill: #0c2f47"/>
    <path d="M 421.58676 631.428648 
L 418.428569 654.653033 
L 421.699986 717.377316 
z
" clip-path="url(#p1c613c69bd)" style="fill: #0b293d"/>
    <path d="M 457.925284 720.149575 
L 495.09068 780.864548 
L 504.339623 808.470449 
z
" clip-path="url(#p1c613c69bd)" style="fill: #092436"/>
    <path d="M 492.718266 543.743222 
L 507.473989 583.340532 
L 456.84379 644.275692 
z
" clip-path="url(#p1c613c69bd)" style="fill: #0e354f"/>
    <path d="M 1056.631581 814.229539 
L 912.249408 842.484528 
L 988.414349 867.250306 
z
" clip-path="url(#p1c613c69bd)" style="fill: #185e8e"/>
    <path d="M 507.473989 583.340532 
L 421.58676 631.428648 
L 456.84379 644.275692 
z
" clip-path="url(#p1c613c69bd)" style="fill: #195e8f"/>
    <path d="M 958.973051 750.023723 
L 912.249408 842.484528 
L 971.737311 737.623923 
z
" clip-path="url(#p1c613c69bd)" style="fill: #1a6395"/>
    <path d="M 886.029607 539.897332 
L 930.283764 632.588635 
L 881.43944 504.651338 
z
" clip-path="url(#p1c613c69bd)" style="fill: #1f77b3"/>
    <path d="M 421.58676 631.428648 
L 421.699986 717.377316 
L 457.925284 720.149575 
z
" clip-path="url(#p1c613c69bd)" style="fill: #0d334d"/>
    <path d="M 685.508351 448.86308 
L 614.531575 440.354905 
L 804.648365 463.022236 
z
" clip-path="url(#p1c613c69bd)" style="fill: #1b689e"/>
    <path d="M 457.925284 720.149575 
L 456.84379 644.275692 
L 421.58676 631.428648 
z
" clip-path="url(#p1c613c69bd)" style="fill: #114162"/>
    <path d="M 1045.067812 651.254464 
L 958.973051 750.023723 
L 930.283764 632.588635 
z
" clip-path="url(#p1c613c69bd)" style="fill: #1a6396"/>
    <path d="M 756.768947 443.086381 
L 881.43944 504.651338 
L 804.648365 463.022236 
z
" clip-path="url(#p1c613c69bd)" style="fill: #1e72ac"/>
    <path d="M 740.557777 1030.845397 
L 580.832936 843.896998 
L 1056.631581 814.229539 
z
" clip-path="url(#p1c613c69bd)" style="fill: #114060"/>
    <path d="M 983.050316 880.569123 
L 988.414349 867.250306 
L 912.249408 842.484528 
z
" clip-path="url(#p1c613c69bd)" style="fill: #1d6fa8"/>
    <path d="M 529.002182 891.993309 
L 504.339623 808.470449 
L 580.832936 843.896998 
z
" clip-path="url(#p1c613c69bd)" style="fill: #0b293e"/>
    <path d="M 685.508351 448.86308 
L 544.204587 473.767835 
L 614.531575 440.354905 
z
" clip-path="url(#p1c613c69bd)" style="fill: #185b8a"/>
    <path d="M 988.414349 867.250306 
L 740.557777 1030.845397 
L 1056.631581 814.229539 
z
" clip-path="url(#p1c613c69bd)" style="fill: #103f5f"/>
    <path d="M 958.973051 750.023723 
L 925.622544 861.711852 
L 912.249408 842.484528 
z
" clip-path="url(#p1c613c69bd)" style="fill: #1a6599"/>
    <path d="M 539.490979 930.691903 
L 529.002182 891.993309 
L 580.832936 843.896998 
z
" clip-path="url(#p1c613c69bd)" style="fill: #0c2f48"/>
    <path d="M 1045.067812 651.254464 
L 930.283764 632.588635 
L 1053.379954 606.956769 
z
" clip-path="url(#p1c613c69bd)" style="fill: #1c6ba1"/>
    <path d="M 756.768947 443.086381 
L 886.029607 539.897332 
L 881.43944 504.651338 
z
" clip-path="url(#p1c613c69bd)" style="fill: #1e75b1"/>
    <path d="M 912.249408 842.484528 
L 925.622544 861.711852 
L 983.050316 880.569123 
z
" clip-path="url(#p1c613c69bd)" style="fill: #1d6ea6"/>
    <path d="M 614.531575 440.354905 
L 756.768947 443.086381 
L 804.648365 463.022236 
z
" clip-path="url(#p1c613c69bd)" style="fill: #1b669a"/>
    <path d="M 930.283764 632.588635 
L 886.029607 539.897332 
L 950.044694 568.39098 
z
" clip-path="url(#p1c613c69bd)" style="fill: #1e71ab"/>
    <path d="M 988.414349 867.250306 
L 983.050316 880.569123 
L 981.188921 962.20462 
z
" clip-path="url(#p1c613c69bd)" style="fill: #1e72ac"/>
    <path d="M 1081.375849 735.629424 
L 958.973051 750.023723 
L 1045.067812 651.254464 
z
" clip-path="url(#p1c613c69bd)" style="fill: #1a6396"/>
    <path d="M 478.847579 858.696413 
L 457.925284 720.149575 
L 504.339623 808.470449 
z
" clip-path="url(#p1c613c69bd)" style="fill: #0a2538"/>
    <path d="M 539.490979 930.691903 
L 580.832936 843.896998 
L 740.557777 1030.845397 
z
" clip-path="url(#p1c613c69bd)" style="fill: #113f60"/>
    <path d="M 981.188921 962.20462 
L 871.986426 969.202984 
L 988.414349 867.250306 
z
" clip-path="url(#p1c613c69bd)" style="fill: #114264"/>
    <path d="M 438.326345 601.282873 
L 492.718266 543.743222 
L 456.84379 644.275692 
z
" clip-path="url(#p1c613c69bd)" style="fill: #0d324c"/>
    <path d="M 1081.375849 735.629424 
L 1042.964514 796.068049 
L 958.973051 750.023723 
z
" clip-path="url(#p1c613c69bd)" style="fill: #196192"/>
    <path d="M 930.283764 632.588635 
L 950.044694 568.39098 
L 1053.379954 606.956769 
z
" clip-path="url(#p1c613c69bd)" style="fill: #1b689d"/>
    <path d="M 544.204587 473.767835 
L 492.718266 543.743222 
L 438.326345 601.282873 
z
" clip-path="url(#p1c613c69bd)" style="fill: #103e5e"/>
    <path d="M 423.654588 717.97045 
L 456.84379 644.275692 
L 457.925284 720.149575 
z
" clip-path="url(#p1c613c69bd)" style="fill: #0b293e"/>
    <path d="M 981.188921 962.20462 
L 983.050316 880.569123 
L 925.622544 861.711852 
z
" clip-path="url(#p1c613c69bd)" style="fill: #175885"/>
    <path d="M 871.986426 969.202984 
L 740.557777 1030.845397 
L 988.414349 867.250306 
z
" clip-path="url(#p1c613c69bd)" style="fill: #113f60"/>
    <path d="M 478.847579 858.696413 
L 504.339623 808.470449 
L 529.002182 891.993309 
z
" clip-path="url(#p1c613c69bd)" style="fill: #0a2639"/>
    <path d="M 550.91933 467.304683 
L 614.531575 440.354905 
L 544.204587 473.767835 
z
" clip-path="url(#p1c613c69bd)" style="fill: #165480"/>
    <path d="M 1045.067812 651.254464 
L 1053.379954 606.956769 
L 1081.375849 735.629424 
z
" clip-path="url(#p1c613c69bd)" style="fill: #1e71ab"/>
    <path d="M 925.622544 861.711852 
L 958.973051 750.023723 
L 894.823063 906.527748 
z
" clip-path="url(#p1c613c69bd)" style="fill: #1c6ba2"/>
    <path d="M 894.823063 906.527748 
L 958.973051 750.023723 
L 1042.964514 796.068049 
z
" clip-path="url(#p1c613c69bd)" style="fill: #124569"/>
    <path d="M 981.188921 962.20462 
L 925.622544 861.711852 
L 860.369787 935.891604 
z
" clip-path="url(#p1c613c69bd)" style="fill: #1a6497"/>
    <path d="M 529.002182 891.993309 
L 539.490979 930.691903 
L 680.578368 966.462144 
z
" clip-path="url(#p1c613c69bd)" style="fill: #0c2d44"/>
    <path d="M 871.986426 969.202984 
L 981.188921 962.20462 
L 860.369787 935.891604 
z
" clip-path="url(#p1c613c69bd)" style="fill: #0f3a57"/>
    <path d="M 550.91933 467.304683 
L 544.204587 473.767835 
L 438.326345 601.282873 
z
" clip-path="url(#p1c613c69bd)" style="fill: #114061"/>
    <path d="M 1116.410233 718.56126 
L 1081.375849 735.629424 
L 1053.379954 606.956769 
z
" clip-path="url(#p1c613c69bd)" style="fill: #1d71ab"/>
    <path d="M 438.326345 601.282873 
L 456.84379 644.275692 
L 423.654588 717.97045 
z
" clip-path="url(#p1c613c69bd)" style="fill: #0c2c43"/>
    <path d="M 457.925284 720.149575 
L 478.847579 858.696413 
L 465.115461 821.176586 
z
" clip-path="url(#p1c613c69bd)" style="fill: #0a2539"/>
    <path d="M 680.578368 966.462144 
L 539.490979 930.691903 
L 740.557777 1030.845397 
z
" clip-path="url(#p1c613c69bd)" style="fill: #0c2d44"/>
    <path d="M 756.768947 443.086381 
L 614.531575 440.354905 
L 696.348152 451.657111 
z
" clip-path="url(#p1c613c69bd)" style="fill: #1a6498"/>
    <path d="M 894.823063 906.527748 
L 860.369787 935.891604 
L 925.622544 861.711852 
z
" clip-path="url(#p1c613c69bd)" style="fill: #175783"/>
    <path d="M 828.440623 539.824074 
L 886.029607 539.897332 
L 756.768947 443.086381 
z
" clip-path="url(#p1c613c69bd)" style="fill: #1e75b1"/>
    <path d="M 950.044694 568.39098 
L 886.029607 539.897332 
L 828.440623 539.824074 
z
" clip-path="url(#p1c613c69bd)" style="fill: #1d6ea6"/>
    <path d="M 614.531575 440.354905 
L 550.91933 467.304683 
L 696.348152 451.657111 
z
" clip-path="url(#p1c613c69bd)" style="fill: #185d8d"/>
    <path d="M 871.986426 969.202984 
L 860.369787 935.891604 
L 804.657677 1028.304785 
z
" clip-path="url(#p1c613c69bd)" style="fill: #196092"/>
    <path d="M 457.925284 720.149575 
L 465.115461 821.176586 
L 423.654588 717.97045 
z
" clip-path="url(#p1c613c69bd)" style="fill: #092436"/>
    <path d="M 950.044694 568.39098 
L 1059.474197 608.21695 
L 1053.379954 606.956769 
z
" clip-path="url(#p1c613c69bd)" style="fill: #1d6ea7"/>
    <path d="M 804.657677 1028.304785 
L 740.557777 1030.845397 
L 871.986426 969.202984 
z
" clip-path="url(#p1c613c69bd)" style="fill: #114163"/>
    <path d="M 1059.474197 608.21695 
L 1116.410233 718.56126 
L 1053.379954 606.956769 
z
" clip-path="url(#p1c613c69bd)" style="fill: #1f77b3"/>
    <path d="M 627.10037 966.69583 
L 529.002182 891.993309 
L 680.578368 966.462144 
z
" clip-path="url(#p1c613c69bd)" style="fill: #0d344e"/>
    <path d="M 1060.118314 873.725328 
L 1042.964514 796.068049 
L 1081.375849 735.629424 
z
" clip-path="url(#p1c613c69bd)" style="fill: #1a6396"/>
    <path d="M 998.147504 902.024027 
L 894.823063 906.527748 
L 1042.964514 796.068049 
z
" clip-path="url(#p1c613c69bd)" style="fill: #124569"/>
    <path d="M 529.002182 891.993309 
L 542.080176 907.027428 
L 478.847579 858.696413 
z
" clip-path="url(#p1c613c69bd)" style="fill: #0a283c"/>
    <path d="M 860.369787 935.891604 
L 894.823063 906.527748 
L 680.578368 966.462144 
z
" clip-path="url(#p1c613c69bd)" style="fill: #114162"/>
    <path d="M 860.369787 935.891604 
L 680.578368 966.462144 
L 804.657677 1028.304785 
z
" clip-path="url(#p1c613c69bd)" style="fill: #15527c"/>
    <path d="M 740.557777 1030.845397 
L 804.657677 1028.304785 
L 680.578368 966.462144 
z
" clip-path="url(#p1c613c69bd)" style="fill: #0e3651"/>
    <path d="M 756.768947 443.086381 
L 696.348152 451.657111 
L 828.440623 539.824074 
z
" clip-path="url(#p1c613c69bd)" style="fill: #1d70aa"/>
    <path d="M 542.080176 907.027428 
L 529.002182 891.993309 
L 627.10037 966.69583 
z
" clip-path="url(#p1c613c69bd)" style="fill: #0a273c"/>
    <path d="M 1123.056158 773.831231 
L 1081.375849 735.629424 
L 1116.410233 718.56126 
z
" clip-path="url(#p1c613c69bd)" style="fill: #1a6599"/>
    <path d="M 1060.118314 873.725328 
L 998.147504 902.024027 
L 1042.964514 796.068049 
z
" clip-path="url(#p1c613c69bd)" style="fill: #185b89"/>
    <path d="M 1059.474197 608.21695 
L 950.044694 568.39098 
L 911.175966 578.643789 
z
" clip-path="url(#p1c613c69bd)" style="fill: #1c6da4"/>
    <path d="M 438.326345 601.282873 
L 532.916938 542.601985 
L 550.91933 467.304683 
z
" clip-path="url(#p1c613c69bd)" style="fill: #114263"/>
    <path d="M 465.115461 821.176586 
L 478.847579 858.696413 
L 542.080176 907.027428 
z
" clip-path="url(#p1c613c69bd)" style="fill: #0a273a"/>
    <path d="M 1059.474197 608.21695 
L 1022.171104 549.594829 
L 1095.302531 520.628922 
z
" clip-path="url(#p1c613c69bd)" style="fill: #114162"/>
    <path d="M 911.175966 578.643789 
L 950.044694 568.39098 
L 828.440623 539.824074 
z
" clip-path="url(#p1c613c69bd)" style="fill: #1d6fa8"/>
    <path d="M 1059.474197 608.21695 
L 1095.302531 520.628922 
L 1161.834391 628.658425 
z
" clip-path="url(#p1c613c69bd)" style="fill: #175784"/>
    <path d="M 438.326345 601.282873 
L 423.654588 717.97045 
L 453.67513 706.574088 
z
" clip-path="url(#p1c613c69bd)" style="fill: #0b2c43"/>
    <path d="M 761.741656 910.304925 
L 680.578368 966.462144 
L 894.823063 906.527748 
z
" clip-path="url(#p1c613c69bd)" style="fill: #114061"/>
    <path d="M 550.91933 467.304683 
L 650.544856 517.439916 
L 696.348152 451.657111 
z
" clip-path="url(#p1c613c69bd)" style="fill: #165682"/>
    <path d="M 1111.938938 676.115081 
L 1116.410233 718.56126 
L 1059.474197 608.21695 
z
" clip-path="url(#p1c613c69bd)" style="fill: #1f75b2"/>
    <path d="M 465.115461 821.176586 
L 453.67513 706.574088 
L 423.654588 717.97045 
z
" clip-path="url(#p1c613c69bd)" style="fill: #0b293e"/>
    <path d="M 1123.056158 773.831231 
L 1060.118314 873.725328 
L 1081.375849 735.629424 
z
" clip-path="url(#p1c613c69bd)" style="fill: #196294"/>
    <path d="M 1161.834391 628.658425 
L 1095.302531 520.628922 
L 1154.232343 511.087754 
z
" clip-path="url(#p1c613c69bd)" style="fill: #1c6ba2"/>
    <path d="M 1059.474197 608.21695 
L 911.175966 578.643789 
L 1022.171104 549.594829 
z
" clip-path="url(#p1c613c69bd)" style="fill: #144e76"/>
    <path d="M 1059.474197 608.21695 
L 1161.834391 628.658425 
L 1111.938938 676.115081 
z
" clip-path="url(#p1c613c69bd)" style="fill: #134b71"/>
    <path d="M 650.544856 517.439916 
L 550.91933 467.304683 
L 532.916938 542.601985 
z
" clip-path="url(#p1c613c69bd)" style="fill: #16547f"/>
    <path d="M 696.348152 451.657111 
L 650.544856 517.439916 
L 828.440623 539.824074 
z
" clip-path="url(#p1c613c69bd)" style="fill: #1c6aa0"/>
    <path d="M 998.147504 902.024027 
L 886.838831 957.419398 
L 894.823063 906.527748 
z
" clip-path="url(#p1c613c69bd)" style="fill: #0f3b5a"/>
    <path d="M 680.578368 966.462144 
L 672.968046 970.576033 
L 627.10037 966.69583 
z
" clip-path="url(#p1c613c69bd)" style="fill: #0e3652"/>
    <path d="M 1123.056158 773.831231 
L 1116.410233 718.56126 
L 1111.938938 676.115081 
z
" clip-path="url(#p1c613c69bd)" style="fill: #1e74af"/>
    <path d="M 1191.462492 595.5698 
L 1161.834391 628.658425 
L 1154.232343 511.087754 
z
" clip-path="url(#p1c613c69bd)" style="fill: #1b699e"/>
    <path d="M 1095.302531 520.628922 
L 1087.423604 482.94611 
L 1154.232343 511.087754 
z
" clip-path="url(#p1c613c69bd)" style="fill: #1b679b"/>
    <path d="M 465.115461 821.176586 
L 502.791272 825.658205 
L 453.67513 706.574088 
z
" clip-path="url(#p1c613c69bd)" style="fill: #0b2a3f"/>
    <path d="M 971.724441 538.863669 
L 1095.302531 520.628922 
L 1022.171104 549.594829 
z
" clip-path="url(#p1c613c69bd)" style="fill: #15517a"/>
    <path d="M 886.838831 957.419398 
L 761.741656 910.304925 
L 894.823063 906.527748 
z
" clip-path="url(#p1c613c69bd)" style="fill: #0c3048"/>
    <path d="M 542.080176 907.027428 
L 627.10037 966.69583 
L 672.968046 970.576033 
z
" clip-path="url(#p1c613c69bd)" style="fill: #0b2a40"/>
    <path d="M 672.968046 970.576033 
L 680.578368 966.462144 
L 761.741656 910.304925 
z
" clip-path="url(#p1c613c69bd)" style="fill: #144e76"/>
    <path d="M 505.59727 690.806541 
L 438.326345 601.282873 
L 453.67513 706.574088 
z
" clip-path="url(#p1c613c69bd)" style="fill: #0c2f47"/>
    <path d="M 438.326345 601.282873 
L 505.59727 690.806541 
L 532.916938 542.601985 
z
" clip-path="url(#p1c613c69bd)" style="fill: #0f3a58"/>
    <path d="M 465.115461 821.176586 
L 542.080176 907.027428 
L 617.390343 911.788215 
z
" clip-path="url(#p1c613c69bd)" style="fill: #0b2a3f"/>
    <path d="M 971.724441 538.863669 
L 1022.171104 549.594829 
L 911.175966 578.643789 
z
" clip-path="url(#p1c613c69bd)" style="fill: #175987"/>
    <path d="M 849.375255 639.570152 
L 911.175966 578.643789 
L 828.440623 539.824074 
z
" clip-path="url(#p1c613c69bd)" style="fill: #1b669a"/>
    <path d="M 1170.772938 550.319041 
L 1191.462492 595.5698 
L 1154.232343 511.087754 
z
" clip-path="url(#p1c613c69bd)" style="fill: #1f77b4"/>
    <path d="M 1161.834391 628.658425 
L 1136.789454 733.384619 
L 1111.938938 676.115081 
z
" clip-path="url(#p1c613c69bd)" style="fill: #154f78"/>
    <path d="M 512.35949 742.267252 
L 453.67513 706.574088 
L 502.791272 825.658205 
z
" clip-path="url(#p1c613c69bd)" style="fill: #0d314a"/>
    <path d="M 1161.834391 628.658425 
L 1191.462492 595.5698 
L 1136.789454 733.384619 
z
" clip-path="url(#p1c613c69bd)" style="fill: #1a6295"/>
    <path d="M 971.724441 538.863669 
L 1087.423604 482.94611 
L 1095.302531 520.628922 
z
" clip-path="url(#p1c613c69bd)" style="fill: #15527c"/>
    <path d="M 650.544856 517.439916 
L 747.297291 660.338352 
L 828.440623 539.824074 
z
" clip-path="url(#p1c613c69bd)" style="fill: #1b699e"/>
    <path d="M 1060.118314 873.725328 
L 967.19927 915.014755 
L 998.147504 902.024027 
z
" clip-path="url(#p1c613c69bd)" style="fill: #12466a"/>
    <path d="M 502.791272 825.658205 
L 465.115461 821.176586 
L 617.390343 911.788215 
z
" clip-path="url(#p1c613c69bd)" style="fill: #0b293e"/>
    <path d="M 1123.056158 773.831231 
L 1111.938938 676.115081 
L 1082.552309 783.106176 
z
" clip-path="url(#p1c613c69bd)" style="fill: #1d6fa8"/>
    <path d="M 584.177194 947.896648 
L 542.080176 907.027428 
L 672.968046 970.576033 
z
" clip-path="url(#p1c613c69bd)" style="fill: #0d344e"/>
    <path d="M 650.544856 517.439916 
L 532.916938 542.601985 
L 597.066887 605.621755 
z
" clip-path="url(#p1c613c69bd)" style="fill: #144d74"/>
    <path d="M 1082.552309 783.106176 
L 1060.118314 873.725328 
L 1123.056158 773.831231 
z
" clip-path="url(#p1c613c69bd)" style="fill: #185c8b"/>
    <path d="M 1170.772938 550.319041 
L 1154.232343 511.087754 
L 1087.423604 482.94611 
z
" clip-path="url(#p1c613c69bd)" style="fill: #1e74b0"/>
    <path d="M 886.838831 957.419398 
L 998.147504 902.024027 
L 967.19927 915.014755 
z
" clip-path="url(#p1c613c69bd)" style="fill: #13486d"/>
    <path d="M 505.59727 690.806541 
L 453.67513 706.574088 
L 512.35949 742.267252 
z
" clip-path="url(#p1c613c69bd)" style="fill: #0b2b41"/>
    <path d="M 512.35949 742.267252 
L 502.791272 825.658205 
L 581.827801 802.874966 
z
" clip-path="url(#p1c613c69bd)" style="fill: #0f3854"/>
    <path d="M 617.390343 911.788215 
L 542.080176 907.027428 
L 584.177194 947.896648 
z
" clip-path="url(#p1c613c69bd)" style="fill: #0b2c42"/>
    <path d="M 692.63104 871.116583 
L 672.968046 970.576033 
L 761.741656 910.304925 
z
" clip-path="url(#p1c613c69bd)" style="fill: #185b8a"/>
    <path d="M 747.297291 660.338352 
L 849.375255 639.570152 
L 828.440623 539.824074 
z
" clip-path="url(#p1c613c69bd)" style="fill: #175885"/>
    <path d="M 597.066887 605.621755 
L 532.916938 542.601985 
L 505.59727 690.806541 
z
" clip-path="url(#p1c613c69bd)" style="fill: #124467"/>
    <path d="M 1191.462492 595.5698 
L 1170.772938 550.319041 
L 1136.789454 733.384619 
z
" clip-path="url(#p1c613c69bd)" style="fill: #1c6aa0"/>
    <path d="M 1111.938938 676.115081 
L 1136.789454 733.384619 
L 1082.552309 783.106176 
z
" clip-path="url(#p1c613c69bd)" style="fill: #175986"/>
    <path d="M 502.791272 825.658205 
L 617.390343 911.788215 
L 581.827801 802.874966 
z
" clip-path="url(#p1c613c69bd)" style="fill: #0f3b59"/>
    <path d="M 747.297291 660.338352 
L 650.544856 517.439916 
L 597.066887 605.621755 
z
" clip-path="url(#p1c613c69bd)" style="fill: #175885"/>
    <path d="M 886.838831 957.419398 
L 853.113311 912.710172 
L 761.741656 910.304925 
z
" clip-path="url(#p1c613c69bd)" style="fill: #0c2d44"/>
    <path d="M 1082.552309 783.106176 
L 967.19927 915.014755 
L 1060.118314 873.725328 
z
" clip-path="url(#p1c613c69bd)" style="fill: #175885"/>
    <path d="M 584.177194 947.896648 
L 672.968046 970.576033 
L 617.390343 911.788215 
z
" clip-path="url(#p1c613c69bd)" style="fill: #0d334d"/>
    <path d="M 692.63104 871.116583 
L 761.741656 910.304925 
L 853.113311 912.710172 
z
" clip-path="url(#p1c613c69bd)" style="fill: #0c2e46"/>
    <path d="M 505.59727 690.806541 
L 512.35949 742.267252 
L 614.693558 720.329959 
z
" clip-path="url(#p1c613c69bd)" style="fill: #0e344f"/>
    <path d="M 675.129783 791.566415 
L 512.35949 742.267252 
L 581.827801 802.874966 
z
" clip-path="url(#p1c613c69bd)" style="fill: #0d324b"/>
    <path d="M 692.63104 871.116583 
L 581.827801 802.874966 
L 617.390343 911.788215 
z
" clip-path="url(#p1c613c69bd)" style="fill: #175884"/>
    <path d="M 617.390343 911.788215 
L 672.968046 970.576033 
L 692.63104 871.116583 
z
" clip-path="url(#p1c613c69bd)" style="fill: #16537e"/>
    <path d="M 1087.423604 482.94611 
L 971.724441 538.863669 
L 991.969023 492.630218 
z
" clip-path="url(#p1c613c69bd)" style="fill: #155079"/>
    <path d="M 597.066887 605.621755 
L 505.59727 690.806541 
L 614.693558 720.329959 
z
" clip-path="url(#p1c613c69bd)" style="fill: #13476c"/>
    <path d="M 675.129783 791.566415 
L 581.827801 802.874966 
L 692.63104 871.116583 
z
" clip-path="url(#p1c613c69bd)" style="fill: #0d314b"/>
    <path d="M 614.693558 720.329959 
L 747.297291 660.338352 
L 597.066887 605.621755 
z
" clip-path="url(#p1c613c69bd)" style="fill: #144c73"/>
    <path d="M 863.131459 634.097248 
L 911.175966 578.643789 
L 849.375255 639.570152 
z
" clip-path="url(#p1c613c69bd)" style="fill: #13476c"/>
    <path d="M 614.693558 720.329959 
L 512.35949 742.267252 
L 675.129783 791.566415 
z
" clip-path="url(#p1c613c69bd)" style="fill: #0e3651"/>
    <path d="M 971.724441 538.863669 
L 911.175966 578.643789 
L 897.200976 577.050564 
z
" clip-path="url(#p1c613c69bd)" style="fill: #155079"/>
    <path d="M 1170.772938 550.319041 
L 1145.686095 711.484312 
L 1136.789454 733.384619 
z
" clip-path="url(#p1c613c69bd)" style="fill: #1d6ea6"/>
    <path d="M 1087.423604 482.94611 
L 1110.005703 543.487756 
L 1170.772938 550.319041 
z
" clip-path="url(#p1c613c69bd)" style="fill: #1e74af"/>
    <path d="M 853.113311 912.710172 
L 886.838831 957.419398 
L 967.19927 915.014755 
z
" clip-path="url(#p1c613c69bd)" style="fill: #103c5a"/>
    <path d="M 675.129783 791.566415 
L 747.297291 660.338352 
L 614.693558 720.329959 
z
" clip-path="url(#p1c613c69bd)" style="fill: #144d74"/>
    <path d="M 991.969023 492.630218 
L 1110.005703 543.487756 
L 1087.423604 482.94611 
z
" clip-path="url(#p1c613c69bd)" style="fill: #1b699f"/>
    <path d="M 1055.916206 809.874501 
L 1082.552309 783.106176 
L 1136.789454 733.384619 
z
" clip-path="url(#p1c613c69bd)" style="fill: #165480"/>
    <path d="M 853.113311 912.710172 
L 675.129783 791.566415 
L 692.63104 871.116583 
z
" clip-path="url(#p1c613c69bd)" style="fill: #0d314b"/>
    <path d="M 959.872658 833.699262 
L 967.19927 915.014755 
L 1082.552309 783.106176 
z
" clip-path="url(#p1c613c69bd)" style="fill: #165682"/>
    <path d="M 843.646596 758.563655 
L 849.375255 639.570152 
L 747.297291 660.338352 
z
" clip-path="url(#p1c613c69bd)" style="fill: #15517a"/>
    <path d="M 897.200976 577.050564 
L 911.175966 578.643789 
L 863.131459 634.097248 
z
" clip-path="url(#p1c613c69bd)" style="fill: #0f3b59"/>
    <path d="M 1145.686095 711.484312 
L 1055.916206 809.874501 
L 1136.789454 733.384619 
z
" clip-path="url(#p1c613c69bd)" style="fill: #175987"/>
    <path d="M 971.724441 538.863669 
L 897.200976 577.050564 
L 991.969023 492.630218 
z
" clip-path="url(#p1c613c69bd)" style="fill: #114061"/>
    <path d="M 747.297291 660.338352 
L 675.129783 791.566415 
L 843.646596 758.563655 
z
" clip-path="url(#p1c613c69bd)" style="fill: #12466a"/>
    <path d="M 1145.686095 711.484312 
L 1170.772938 550.319041 
L 1099.12053 699.433412 
z
" clip-path="url(#p1c613c69bd)" style="fill: #1c6ca3"/>
    <path d="M 1082.552309 783.106176 
L 1055.916206 809.874501 
L 959.872658 833.699262 
z
" clip-path="url(#p1c613c69bd)" style="fill: #114061"/>
    <path d="M 853.113311 912.710172 
L 967.19927 915.014755 
L 959.872658 833.699262 
z
" clip-path="url(#p1c613c69bd)" style="fill: #12466a"/>
    <path d="M 675.129783 791.566415 
L 853.113311 912.710172 
L 785.328247 803.834748 
z
" clip-path="url(#p1c613c69bd)" style="fill: #0e3754"/>
    <path d="M 1130.712002 639.519873 
L 1170.772938 550.319041 
L 1110.005703 543.487756 
z
" clip-path="url(#p1c613c69bd)" style="fill: #1e73af"/>
    <path d="M 785.328247 803.834748 
L 843.646596 758.563655 
L 675.129783 791.566415 
z
" clip-path="url(#p1c613c69bd)" style="fill: #114061"/>
    <path d="M 843.646596 758.563655 
L 853.113311 912.710172 
L 959.872658 833.699262 
z
" clip-path="url(#p1c613c69bd)" style="fill: #124466"/>
    <path d="M 843.646596 758.563655 
L 785.328247 803.834748 
L 853.113311 912.710172 
z
" clip-path="url(#p1c613c69bd)" style="fill: #114264"/>
    <path d="M 1014.264726 561.22384 
L 1110.005703 543.487756 
L 991.969023 492.630218 
z
" clip-path="url(#p1c613c69bd)" style="fill: #1b689e"/>
    <path d="M 866.87444 693.160188 
L 849.375255 639.570152 
L 843.646596 758.563655 
z
" clip-path="url(#p1c613c69bd)" style="fill: #0c2d44"/>
    <path d="M 863.131459 634.097248 
L 849.375255 639.570152 
L 866.87444 693.160188 
z
" clip-path="url(#p1c613c69bd)" style="fill: #0b2a3f"/>
    <path d="M 1130.712002 639.519873 
L 1099.12053 699.433412 
L 1170.772938 550.319041 
z
" clip-path="url(#p1c613c69bd)" style="fill: #1a6497"/>
    <path d="M 1099.12053 699.433412 
L 1055.916206 809.874501 
L 1145.686095 711.484312 
z
" clip-path="url(#p1c613c69bd)" style="fill: #175a88"/>
    <path d="M 897.200976 577.050564 
L 1014.264726 561.22384 
L 991.969023 492.630218 
z
" clip-path="url(#p1c613c69bd)" style="fill: #175784"/>
    <path d="M 937.759041 760.496614 
L 843.646596 758.563655 
L 959.872658 833.699262 
z
" clip-path="url(#p1c613c69bd)" style="fill: #0c2f47"/>
    <path d="M 1130.712002 639.519873 
L 1110.005703 543.487756 
L 1014.264726 561.22384 
z
" clip-path="url(#p1c613c69bd)" style="fill: #1b689d"/>
    <path d="M 974.224831 742.543906 
L 959.872658 833.699262 
L 1055.916206 809.874501 
z
" clip-path="url(#p1c613c69bd)" style="fill: #103e5d"/>
    <path d="M 897.200976 577.050564 
L 863.131459 634.097248 
L 790.969139 566.553079 
z
" clip-path="url(#p1c613c69bd)" style="fill: #15517a"/>
    <path d="M 891.855732 727.36158 
L 866.87444 693.160188 
L 843.646596 758.563655 
z
" clip-path="url(#p1c613c69bd)" style="fill: #0c2e45"/>
    <path d="M 918.652208 576.391638 
L 1014.264726 561.22384 
L 897.200976 577.050564 
z
" clip-path="url(#p1c613c69bd)" style="fill: #195f90"/>
    <path d="M 974.224831 742.543906 
L 1055.916206 809.874501 
L 1099.12053 699.433412 
z
" clip-path="url(#p1c613c69bd)" style="fill: #16537e"/>
    <path d="M 897.200976 577.050564 
L 790.969139 566.553079 
L 918.652208 576.391638 
z
" clip-path="url(#p1c613c69bd)" style="fill: #1b669b"/>
    <path d="M 937.759041 760.496614 
L 891.855732 727.36158 
L 843.646596 758.563655 
z
" clip-path="url(#p1c613c69bd)" style="fill: #0c2f47"/>
    <path d="M 937.759041 760.496614 
L 959.872658 833.699262 
L 974.224831 742.543906 
z
" clip-path="url(#p1c613c69bd)" style="fill: #0f3957"/>
    <path d="M 636.428464 670.958968 
L 863.131459 634.097248 
L 866.87444 693.160188 
z
" clip-path="url(#p1c613c69bd)" style="fill: #0e344f"/>
    <path d="M 1014.264726 561.22384 
L 918.652208 576.391638 
L 967.704874 648.214425 
z
" clip-path="url(#p1c613c69bd)" style="fill: #16547f"/>
    <path d="M 1130.712002 639.519873 
L 1014.264726 561.22384 
L 967.704874 648.214425 
z
" clip-path="url(#p1c613c69bd)" style="fill: #175a88"/>
    <path d="M 790.969139 566.553079 
L 863.131459 634.097248 
L 658.943432 630.768607 
z
" clip-path="url(#p1c613c69bd)" style="fill: #144b71"/>
    <path d="M 999.519893 707.341707 
L 1099.12053 699.433412 
L 1130.712002 639.519873 
z
" clip-path="url(#p1c613c69bd)" style="fill: #16537e"/>
    <path d="M 887.596791 663.882202 
L 866.87444 693.160188 
L 891.855732 727.36158 
z
" clip-path="url(#p1c613c69bd)" style="fill: #0a283d"/>
    <path d="M 658.943432 630.768607 
L 863.131459 634.097248 
L 636.428464 670.958968 
z
" clip-path="url(#p1c613c69bd)" style="fill: #103c5b"/>
    <path d="M 999.519893 707.341707 
L 1130.712002 639.519873 
L 967.704874 648.214425 
z
" clip-path="url(#p1c613c69bd)" style="fill: #195f8f"/>
    <path d="M 999.519893 707.341707 
L 974.224831 742.543906 
L 1099.12053 699.433412 
z
" clip-path="url(#p1c613c69bd)" style="fill: #154f78"/>
    <path d="M 967.704874 648.214425 
L 918.652208 576.391638 
L 875.585198 595.209353 
z
" clip-path="url(#p1c613c69bd)" style="fill: #1e73ae"/>
    <path d="M 873.654272 779.459558 
L 891.855732 727.36158 
L 937.759041 760.496614 
z
" clip-path="url(#p1c613c69bd)" style="fill: #0c3048"/>
    <path d="M 887.596791 663.882202 
L 891.855732 727.36158 
L 880.216442 713.465082 
z
" clip-path="url(#p1c613c69bd)" style="fill: #0b2b41"/>
    <path d="M 887.596791 663.882202 
L 687.232502 686.195832 
L 866.87444 693.160188 
z
" clip-path="url(#p1c613c69bd)" style="fill: #103e5e"/>
    <path d="M 790.969139 566.553079 
L 711.341041 553.640477 
L 918.652208 576.391638 
z
" clip-path="url(#p1c613c69bd)" style="fill: #1b669b"/>
    <path d="M 875.585198 595.209353 
L 887.596791 663.882202 
L 967.704874 648.214425 
z
" clip-path="url(#p1c613c69bd)" style="fill: #134b71"/>
    <path d="M 880.216442 713.465082 
L 967.704874 648.214425 
L 887.596791 663.882202 
z
" clip-path="url(#p1c613c69bd)" style="fill: #175987"/>
    <path d="M 891.855732 727.36158 
L 873.654272 779.459558 
L 880.216442 713.465082 
z
" clip-path="url(#p1c613c69bd)" style="fill: #0b2c43"/>
    <path d="M 687.232502 686.195832 
L 636.428464 670.958968 
L 866.87444 693.160188 
z
" clip-path="url(#p1c613c69bd)" style="fill: #0d3049"/>
    <path d="M 918.652208 576.391638 
L 711.341041 553.640477 
L 875.585198 595.209353 
z
" clip-path="url(#p1c613c69bd)" style="fill: #1d6fa8"/>
    <path d="M 658.943432 630.768607 
L 609.821935 620.144534 
L 790.969139 566.553079 
z
" clip-path="url(#p1c613c69bd)" style="fill: #15517a"/>
    <path d="M 811.085004 887.525103 
L 937.759041 760.496614 
L 974.224831 742.543906 
z
" clip-path="url(#p1c613c69bd)" style="fill: #154f77"/>
    <path d="M 911.937171 725.130034 
L 999.519893 707.341707 
L 967.704874 648.214425 
z
" clip-path="url(#p1c613c69bd)" style="fill: #1e72ad"/>
    <path d="M 873.654272 779.459558 
L 937.759041 760.496614 
L 811.085004 887.525103 
z
" clip-path="url(#p1c613c69bd)" style="fill: #0d314a"/>
    <path d="M 916.983787 774.43007 
L 974.224831 742.543906 
L 999.519893 707.341707 
z
" clip-path="url(#p1c613c69bd)" style="fill: #175987"/>
    <path d="M 875.585198 595.209353 
L 727.576129 644.775819 
L 887.596791 663.882202 
z
" clip-path="url(#p1c613c69bd)" style="fill: #185b8a"/>
    <path d="M 609.821935 620.144534 
L 658.943432 630.768607 
L 636.428464 670.958968 
z
" clip-path="url(#p1c613c69bd)" style="fill: #0e3652"/>
    <path d="M 727.576129 644.775819 
L 687.232502 686.195832 
L 887.596791 663.882202 
z
" clip-path="url(#p1c613c69bd)" style="fill: #103f5f"/>
    <path d="M 967.704874 648.214425 
L 880.216442 713.465082 
L 792.110066 752.445936 
z
" clip-path="url(#p1c613c69bd)" style="fill: #13486d"/>
    <path d="M 790.969139 566.553079 
L 609.821935 620.144534 
L 711.341041 553.640477 
z
" clip-path="url(#p1c613c69bd)" style="fill: #13486c"/>
    <path d="M 727.576129 644.775819 
L 875.585198 595.209353 
L 711.341041 553.640477 
z
" clip-path="url(#p1c613c69bd)" style="fill: #1a6599"/>
    <path d="M 880.216442 713.465082 
L 873.654272 779.459558 
L 695.385856 834.593657 
z
" clip-path="url(#p1c613c69bd)" style="fill: #103c5a"/>
    <path d="M 636.428464 670.958968 
L 687.232502 686.195832 
L 645.225982 715.733014 
z
" clip-path="url(#p1c613c69bd)" style="fill: #0d324b"/>
    <path d="M 911.937171 725.130034 
L 916.983787 774.43007 
L 999.519893 707.341707 
z
" clip-path="url(#p1c613c69bd)" style="fill: #1b689e"/>
    <path d="M 911.937171 725.130034 
L 967.704874 648.214425 
L 792.110066 752.445936 
z
" clip-path="url(#p1c613c69bd)" style="fill: #196091"/>
    <path d="M 827.911937 835.646929 
L 974.224831 742.543906 
L 916.983787 774.43007 
z
" clip-path="url(#p1c613c69bd)" style="fill: #154f77"/>
    <path d="M 609.821935 620.144534 
L 636.428464 670.958968 
L 606.342557 696.310794 
z
" clip-path="url(#p1c613c69bd)" style="fill: #0b293f"/>
    <path d="M 687.232502 686.195832 
L 727.576129 644.775819 
L 645.225982 715.733014 
z
" clip-path="url(#p1c613c69bd)" style="fill: #16547e"/>
    <path d="M 811.085004 887.525103 
L 695.385856 834.593657 
L 873.654272 779.459558 
z
" clip-path="url(#p1c613c69bd)" style="fill: #0d324b"/>
    <path d="M 645.225982 715.733014 
L 606.342557 696.310794 
L 636.428464 670.958968 
z
" clip-path="url(#p1c613c69bd)" style="fill: #0b293e"/>
    <path d="M 974.224831 742.543906 
L 778.168559 903.076108 
L 811.085004 887.525103 
z
" clip-path="url(#p1c613c69bd)" style="fill: #175884"/>
    <path d="M 650.747978 648.400576 
L 727.576129 644.775819 
L 711.341041 553.640477 
z
" clip-path="url(#p1c613c69bd)" style="fill: #1b689e"/>
    <path d="M 827.911937 835.646929 
L 778.168559 903.076108 
L 974.224831 742.543906 
z
" clip-path="url(#p1c613c69bd)" style="fill: #195e8e"/>
    <path d="M 609.821935 620.144534 
L 650.747978 648.400576 
L 711.341041 553.640477 
z
" clip-path="url(#p1c613c69bd)" style="fill: #175784"/>
    <path d="M 880.216442 713.465082 
L 689.980208 771.348267 
L 792.110066 752.445936 
z
" clip-path="url(#p1c613c69bd)" style="fill: #196193"/>
    <path d="M 695.385856 834.593657 
L 689.980208 771.348267 
L 880.216442 713.465082 
z
" clip-path="url(#p1c613c69bd)" style="fill: #113f60"/>
    <path d="M 645.225982 715.733014 
L 727.576129 644.775819 
L 650.747978 648.400576 
z
" clip-path="url(#p1c613c69bd)" style="fill: #165682"/>
    <path d="M 650.747978 648.400576 
L 609.821935 620.144534 
L 606.342557 696.310794 
z
" clip-path="url(#p1c613c69bd)" style="fill: #0f3957"/>
    <path d="M 650.747978 648.400576 
L 606.342557 696.310794 
L 645.225982 715.733014 
z
" clip-path="url(#p1c613c69bd)" style="fill: #114061"/>
    <path d="M 889.498736 804.30546 
L 916.983787 774.43007 
L 911.937171 725.130034 
z
" clip-path="url(#p1c613c69bd)" style="fill: #1d71ab"/>
    <path d="M 889.498736 804.30546 
L 827.911937 835.646929 
L 916.983787 774.43007 
z
" clip-path="url(#p1c613c69bd)" style="fill: #144c74"/>
    <path d="M 695.385856 834.593657 
L 811.085004 887.525103 
L 681.779843 869.53584 
z
" clip-path="url(#p1c613c69bd)" style="fill: #0b2a3f"/>
    <path d="M 681.779843 869.53584 
L 811.085004 887.525103 
L 778.168559 903.076108 
z
" clip-path="url(#p1c613c69bd)" style="fill: #0b2a40"/>
    <path d="M 911.937171 725.130034 
L 792.110066 752.445936 
L 830.096122 791.906967 
z
" clip-path="url(#p1c613c69bd)" style="fill: #196091"/>
    <path d="M 689.980208 771.348267 
L 695.385856 834.593657 
L 681.779843 869.53584 
z
" clip-path="url(#p1c613c69bd)" style="fill: #0b2b40"/>
    <path d="M 911.937171 725.130034 
L 830.096122 791.906967 
L 889.498736 804.30546 
z
" clip-path="url(#p1c613c69bd)" style="fill: #1d71aa"/>
    <path d="M 792.110066 752.445936 
L 689.980208 771.348267 
L 710.909613 780.615987 
z
" clip-path="url(#p1c613c69bd)" style="fill: #196092"/>
    <path d="M 758.902889 838.396166 
L 778.168559 903.076108 
L 827.911937 835.646929 
z
" clip-path="url(#p1c613c69bd)" style="fill: #195e8e"/>
    <path d="M 889.498736 804.30546 
L 758.902889 838.396166 
L 827.911937 835.646929 
z
" clip-path="url(#p1c613c69bd)" style="fill: #114264"/>
    <path d="M 710.909613 780.615987 
L 689.980208 771.348267 
L 681.779843 869.53584 
z
" clip-path="url(#p1c613c69bd)" style="fill: #0b2c43"/>
    <path d="M 758.902889 838.396166 
L 681.779843 869.53584 
L 778.168559 903.076108 
z
" clip-path="url(#p1c613c69bd)" style="fill: #0e3652"/>
    <path d="M 792.110066 752.445936 
L 710.909613 780.615987 
L 830.096122 791.906967 
z
" clip-path="url(#p1c613c69bd)" style="fill: #1b689e"/>
    <path d="M 758.902889 838.396166 
L 889.498736 804.30546 
L 830.096122 791.906967 
z
" clip-path="url(#p1c613c69bd)" style="fill: #154f78"/>
    <path d="M 710.909613 780.615987 
L 681.779843 869.53584 
L 758.902889 838.396166 
z
" clip-path="url(#p1c613c69bd)" style="fill: #0d324c"/>
    <path d="M 830.096122 791.906967 
L 710.909613 780.615987 
L 758.902889 838.396166 
z
" clip-path="url(#p1c613c69bd)" style="fill: #15517a"/>
   </g>
  </g>
 </g>
 <defs>
  <clipPath id="p1c613c69bd">
   <rect x="10.8" y="10.8" width="1418.4" height="1418.4"/>
  </clipPath>
 </defs>
</svg>
