<?xml version="1.0" encoding="utf-8" standalone="no"?>
<!DOCTYPE svg PUBLIC "-//W3C//DTD SVG 1.1//EN"
  "http://www.w3.org/Graphics/SVG/1.1/DTD/svg11.dtd">
<svg xmlns:xlink="http://www.w3.org/1999/xlink" width="1440pt" height="1440pt" viewBox="0 0 1440 1440" xmlns="http://www.w3.org/2000/svg" version="1.1">
 <metadata>
  <rdf:RDF xmlns:dc="http://purl.org/dc/elements/1.1/" xmlns:cc="http://creativecommons.org/ns#" xmlns:rdf="http://www.w3.org/1999/02/22-rdf-syntax-ns#">
   <cc:Work>
    <dc:type rdf:resource="http://purl.org/dc/dcmitype/StillImage"/>
    <dc:date>2023-03-30T00:16:54.811364</dc:date>
    <dc:format>image/svg+xml</dc:format>
    <dc:creator>
     <cc:Agent>
      <dc:title>Matplotlib v3.6.2, https://matplotlib.org/</dc:title>
     </cc:Agent>
    </dc:creator>
   </cc:Work>
  </rdf:RDF>
 </metadata>
 <defs>
  <style type="text/css">*{stroke-linejoin: round; stroke-linecap: butt}</style>
 </defs>
 <g id="figure_1">
  <g id="patch_1">
   <path d="M 0 1440 
L 1440 1440 
L 1440 0 
L 0 0 
L 0 1440 
z
" style="fill: none"/>
  </g>
  <g id="patch_2">
   <path d="M 10.8 1429.2 
L 1429.2 1429.2 
L 1429.2 10.8 
L 10.8 10.8 
L 10.8 1429.2 
z
" style="fill: none"/>
  </g>
  <g id="axes_1">
   <g id="Poly3DCollection_1">
    <path d="M 834.07389 866.306441 
L 906.485527 894.413646 
L 764.274396 895.271644 
z
" clip-path="url(#p89990071f3)" style="fill: #16537e"/>
    <path d="M 725.057575 829.524683 
L 764.274396 895.271644 
L 690.829807 864.715901 
z
" clip-path="url(#p89990071f3)" style="fill: #1f76b3"/>
    <path d="M 690.829807 864.715901 
L 621.037511 837.239185 
L 725.057575 829.524683 
z
" clip-path="url(#p89990071f3)" style="fill: #1e71ac"/>
    <path d="M 690.829807 864.715901 
L 764.274396 895.271644 
L 528.80499 912.947187 
z
" clip-path="url(#p89990071f3)" style="fill: #13476b"/>
    <path d="M 834.07389 866.306441 
L 809.846439 845.534626 
L 906.485527 894.413646 
z
" clip-path="url(#p89990071f3)" style="fill: #1e72ad"/>
    <path d="M 809.846439 845.534626 
L 834.07389 866.306441 
L 764.274396 895.271644 
z
" clip-path="url(#p89990071f3)" style="fill: #1b669a"/>
    <path d="M 690.829807 864.715901 
L 528.80499 912.947187 
L 621.037511 837.239185 
z
" clip-path="url(#p89990071f3)" style="fill: #1a6497"/>
    <path d="M 725.057575 829.524683 
L 621.037511 837.239185 
L 603.670435 754.081905 
z
" clip-path="url(#p89990071f3)" style="fill: #1b679c"/>
    <path d="M 603.670435 754.081905 
L 630.465246 674.843653 
L 732.997428 762.271029 
z
" clip-path="url(#p89990071f3)" style="fill: #1e73ae"/>
    <path d="M 603.670435 754.081905 
L 621.037511 837.239185 
L 522.454047 881.393233 
z
" clip-path="url(#p89990071f3)" style="fill: #196193"/>
    <path d="M 603.670435 754.081905 
L 732.997428 762.271029 
L 725.057575 829.524683 
z
" clip-path="url(#p89990071f3)" style="fill: #1e72ac"/>
    <path d="M 603.670435 754.081905 
L 522.454047 881.393233 
L 526.692557 745.083457 
z
" clip-path="url(#p89990071f3)" style="fill: #196091"/>
    <path d="M 764.274396 895.271644 
L 906.485527 894.413646 
L 528.80499 912.947187 
z
" clip-path="url(#p89990071f3)" style="fill: #103f5f"/>
    <path d="M 550.450917 658.998058 
L 603.670435 754.081905 
L 526.692557 745.083457 
z
" clip-path="url(#p89990071f3)" style="fill: #1c6ba1"/>
    <path d="M 630.465246 674.843653 
L 603.670435 754.081905 
L 550.450917 658.998058 
z
" clip-path="url(#p89990071f3)" style="fill: #1c6ca4"/>
    <path d="M 764.274396 895.271644 
L 725.057575 829.524683 
L 809.846439 845.534626 
z
" clip-path="url(#p89990071f3)" style="fill: #1e73ae"/>
    <path d="M 856.070118 714.711847 
L 732.997428 762.271029 
L 852.737895 661.713999 
z
" clip-path="url(#p89990071f3)" style="fill: #1c6ba1"/>
    <path d="M 528.80499 912.947187 
L 522.454047 881.393233 
L 621.037511 837.239185 
z
" clip-path="url(#p89990071f3)" style="fill: #1a6598"/>
    <path d="M 856.070118 714.711847 
L 852.737895 661.713999 
L 937.332291 755.876862 
z
" clip-path="url(#p89990071f3)" style="fill: #1e71ab"/>
    <path d="M 989.562307 592.687728 
L 869.41845 548.683488 
L 929.864376 499.968682 
z
" clip-path="url(#p89990071f3)" style="fill: #1c6ba2"/>
    <path d="M 550.450917 658.998058 
L 526.692557 745.083457 
L 486.629233 691.325893 
z
" clip-path="url(#p89990071f3)" style="fill: #1b689e"/>
    <path d="M 725.057575 829.524683 
L 823.827023 834.713647 
L 809.846439 845.534626 
z
" clip-path="url(#p89990071f3)" style="fill: #1e74af"/>
    <path d="M 732.997428 762.271029 
L 823.827023 834.713647 
L 725.057575 829.524683 
z
" clip-path="url(#p89990071f3)" style="fill: #1e72ad"/>
    <path d="M 681.968144 660.996013 
L 732.997428 762.271029 
L 630.465246 674.843653 
z
" clip-path="url(#p89990071f3)" style="fill: #1f77b3"/>
    <path d="M 856.070118 714.711847 
L 823.827023 834.713647 
L 732.997428 762.271029 
z
" clip-path="url(#p89990071f3)" style="fill: #1a6396"/>
    <path d="M 522.454047 881.393233 
L 465.083379 825.811563 
L 526.692557 745.083457 
z
" clip-path="url(#p89990071f3)" style="fill: #175986"/>
    <path d="M 1004.623082 547.888818 
L 989.562307 592.687728 
L 929.864376 499.968682 
z
" clip-path="url(#p89990071f3)" style="fill: #1b699e"/>
    <path d="M 937.332291 755.876862 
L 823.827023 834.713647 
L 856.070118 714.711847 
z
" clip-path="url(#p89990071f3)" style="fill: #1a6396"/>
    <path d="M 979.811141 700.470262 
L 937.332291 755.876862 
L 852.737895 661.713999 
z
" clip-path="url(#p89990071f3)" style="fill: #1d71ab"/>
    <path d="M 732.997428 762.271029 
L 767.845437 638.57384 
L 852.737895 661.713999 
z
" clip-path="url(#p89990071f3)" style="fill: #1b689d"/>
    <path d="M 835.355135 919.043394 
L 906.485527 894.413646 
L 809.846439 845.534626 
z
" clip-path="url(#p89990071f3)" style="fill: #185b8a"/>
    <path d="M 891.315615 616.416348 
L 869.41845 548.683488 
L 989.562307 592.687728 
z
" clip-path="url(#p89990071f3)" style="fill: #175784"/>
    <path d="M 869.41845 548.683488 
L 897.271111 452.184828 
L 929.864376 499.968682 
z
" clip-path="url(#p89990071f3)" style="fill: #1b679b"/>
    <path d="M 993.891591 482.206656 
L 1004.623082 547.888818 
L 929.864376 499.968682 
z
" clip-path="url(#p89990071f3)" style="fill: #1f77b4"/>
    <path d="M 528.80499 912.947187 
L 906.485527 894.413646 
L 406.218095 951.262781 
z
" clip-path="url(#p89990071f3)" style="fill: #113f60"/>
    <path d="M 891.315615 616.416348 
L 979.811141 700.470262 
L 852.737895 661.713999 
z
" clip-path="url(#p89990071f3)" style="fill: #1f77b3"/>
    <path d="M 522.454047 881.393233 
L 528.80499 912.947187 
L 477.690166 879.120435 
z
" clip-path="url(#p89990071f3)" style="fill: #155079"/>
    <path d="M 526.692557 745.083457 
L 410.595264 744.919032 
L 486.629233 691.325893 
z
" clip-path="url(#p89990071f3)" style="fill: #185c8b"/>
    <path d="M 767.845437 638.57384 
L 891.315615 616.416348 
L 852.737895 661.713999 
z
" clip-path="url(#p89990071f3)" style="fill: #1d6ea7"/>
    <path d="M 732.997428 762.271029 
L 681.968144 660.996013 
L 767.845437 638.57384 
z
" clip-path="url(#p89990071f3)" style="fill: #1e71ab"/>
    <path d="M 906.485527 894.413646 
L 835.355135 919.043394 
L 898.433929 930.43724 
z
" clip-path="url(#p89990071f3)" style="fill: #185e8e"/>
    <path d="M 937.332291 755.876862 
L 936.361513 815.817417 
L 823.827023 834.713647 
z
" clip-path="url(#p89990071f3)" style="fill: #196192"/>
    <path d="M 891.315615 616.416348 
L 846.290045 563.736994 
L 869.41845 548.683488 
z
" clip-path="url(#p89990071f3)" style="fill: #114162"/>
    <path d="M 555.196174 585.962799 
L 630.465246 674.843653 
L 550.450917 658.998058 
z
" clip-path="url(#p89990071f3)" style="fill: #1e72ac"/>
    <path d="M 410.595264 744.919032 
L 526.692557 745.083457 
L 465.083379 825.811563 
z
" clip-path="url(#p89990071f3)" style="fill: #175885"/>
    <path d="M 522.454047 881.393233 
L 477.690166 879.120435 
L 465.083379 825.811563 
z
" clip-path="url(#p89990071f3)" style="fill: #134a70"/>
    <path d="M 458.529412 662.605307 
L 550.450917 658.998058 
L 486.629233 691.325893 
z
" clip-path="url(#p89990071f3)" style="fill: #1b669b"/>
    <path d="M 993.891591 482.206656 
L 929.864376 499.968682 
L 897.271111 452.184828 
z
" clip-path="url(#p89990071f3)" style="fill: #1e74b0"/>
    <path d="M 823.827023 834.713647 
L 835.355135 919.043394 
L 809.846439 845.534626 
z
" clip-path="url(#p89990071f3)" style="fill: #1a6395"/>
    <path d="M 555.196174 585.962799 
L 681.968144 660.996013 
L 630.465246 674.843653 
z
" clip-path="url(#p89990071f3)" style="fill: #1e75b1"/>
    <path d="M 891.315615 616.416348 
L 989.562307 592.687728 
L 984.770948 628.750291 
z
" clip-path="url(#p89990071f3)" style="fill: #134b71"/>
    <path d="M 984.770948 628.750291 
L 979.811141 700.470262 
L 891.315615 616.416348 
z
" clip-path="url(#p89990071f3)" style="fill: #1f75b2"/>
    <path d="M 1045.695572 696.128743 
L 937.332291 755.876862 
L 979.811141 700.470262 
z
" clip-path="url(#p89990071f3)" style="fill: #1a6599"/>
    <path d="M 477.690166 879.120435 
L 528.80499 912.947187 
L 406.218095 951.262781 
z
" clip-path="url(#p89990071f3)" style="fill: #196091"/>
    <path d="M 989.562307 592.687728 
L 1004.623082 547.888818 
L 1064.987148 621.566128 
z
" clip-path="url(#p89990071f3)" style="fill: #1a6295"/>
    <path d="M 465.083379 825.811563 
L 477.690166 879.120435 
L 416.539243 873.529666 
z
" clip-path="url(#p89990071f3)" style="fill: #175886"/>
    <path d="M 458.529412 662.605307 
L 486.629233 691.325893 
L 410.595264 744.919032 
z
" clip-path="url(#p89990071f3)" style="fill: #185c8b"/>
    <path d="M 1004.623082 547.888818 
L 993.891591 482.206656 
L 1064.987148 621.566128 
z
" clip-path="url(#p89990071f3)" style="fill: #1c6aa0"/>
    <path d="M 465.083379 825.811563 
L 416.539243 873.529666 
L 410.595264 744.919032 
z
" clip-path="url(#p89990071f3)" style="fill: #175a87"/>
    <path d="M 1045.695572 696.128743 
L 979.811141 700.470262 
L 984.770948 628.750291 
z
" clip-path="url(#p89990071f3)" style="fill: #1e74af"/>
    <path d="M 849.445051 504.805978 
L 869.41845 548.683488 
L 846.290045 563.736994 
z
" clip-path="url(#p89990071f3)" style="fill: #15517a"/>
    <path d="M 925.070452 909.500439 
L 898.433929 930.43724 
L 835.355135 919.043394 
z
" clip-path="url(#p89990071f3)" style="fill: #1d6fa8"/>
    <path d="M 849.445051 504.805978 
L 897.271111 452.184828 
L 869.41845 548.683488 
z
" clip-path="url(#p89990071f3)" style="fill: #15527c"/>
    <path d="M 989.562307 592.687728 
L 1064.987148 621.566128 
L 984.770948 628.750291 
z
" clip-path="url(#p89990071f3)" style="fill: #154f78"/>
    <path d="M 1050.567807 787.247159 
L 936.361513 815.817417 
L 937.332291 755.876862 
z
" clip-path="url(#p89990071f3)" style="fill: #1a6396"/>
    <path d="M 477.690166 879.120435 
L 406.218095 951.262781 
L 416.539243 873.529666 
z
" clip-path="url(#p89990071f3)" style="fill: #1a6395"/>
    <path d="M 823.827023 834.713647 
L 872.353303 907.902666 
L 835.355135 919.043394 
z
" clip-path="url(#p89990071f3)" style="fill: #1a6599"/>
    <path d="M 891.315615 616.416348 
L 767.845437 638.57384 
L 789.059149 594.340112 
z
" clip-path="url(#p89990071f3)" style="fill: #1c6da4"/>
    <path d="M 767.845437 638.57384 
L 681.968144 660.996013 
L 691.599815 602.327529 
z
" clip-path="url(#p89990071f3)" style="fill: #1d6ea6"/>
    <path d="M 458.529412 662.605307 
L 427.438377 633.135884 
L 550.450917 658.998058 
z
" clip-path="url(#p89990071f3)" style="fill: #1b689e"/>
    <path d="M 891.315615 616.416348 
L 789.059149 594.340112 
L 846.290045 563.736994 
z
" clip-path="url(#p89990071f3)" style="fill: #144e76"/>
    <path d="M 897.271111 452.184828 
L 980.520934 443.712642 
L 993.891591 482.206656 
z
" clip-path="url(#p89990071f3)" style="fill: #1e74af"/>
    <path d="M 898.433929 930.43724 
L 925.070452 909.500439 
L 978.205212 957.409427 
z
" clip-path="url(#p89990071f3)" style="fill: #1e72ac"/>
    <path d="M 427.438377 633.135884 
L 555.196174 585.962799 
L 550.450917 658.998058 
z
" clip-path="url(#p89990071f3)" style="fill: #1b669a"/>
    <path d="M 1045.695572 696.128743 
L 1050.567807 787.247159 
L 937.332291 755.876862 
z
" clip-path="url(#p89990071f3)" style="fill: #196294"/>
    <path d="M 909.81129 899.131236 
L 823.827023 834.713647 
L 936.361513 815.817417 
z
" clip-path="url(#p89990071f3)" style="fill: #124569"/>
    <path d="M 835.355135 919.043394 
L 872.353303 907.902666 
L 925.070452 909.500439 
z
" clip-path="url(#p89990071f3)" style="fill: #1d6ea6"/>
    <path d="M 406.218095 951.262781 
L 906.485527 894.413646 
L 439.687181 1018.785579 
z
" clip-path="url(#p89990071f3)" style="fill: #114060"/>
    <path d="M 691.599815 602.327529 
L 681.968144 660.996013 
L 555.196174 585.962799 
z
" clip-path="url(#p89990071f3)" style="fill: #1e75b1"/>
    <path d="M 898.433929 930.43724 
L 845.478379 1052.03485 
L 906.485527 894.413646 
z
" clip-path="url(#p89990071f3)" style="fill: #103f5f"/>
    <path d="M 993.891591 482.206656 
L 1077.378629 579.881332 
L 1064.987148 621.566128 
z
" clip-path="url(#p89990071f3)" style="fill: #1d6ea6"/>
    <path d="M 978.205212 957.409427 
L 925.070452 909.500439 
L 872.353303 907.902666 
z
" clip-path="url(#p89990071f3)" style="fill: #175885"/>
    <path d="M 458.529412 662.605307 
L 410.595264 744.919032 
L 370.394014 697.445103 
z
" clip-path="url(#p89990071f3)" style="fill: #185b89"/>
    <path d="M 1045.695572 696.128743 
L 984.770948 628.750291 
L 1049.219358 673.333141 
z
" clip-path="url(#p89990071f3)" style="fill: #1d6fa8"/>
    <path d="M 789.059149 594.340112 
L 767.845437 638.57384 
L 691.599815 602.327529 
z
" clip-path="url(#p89990071f3)" style="fill: #1d6fa8"/>
    <path d="M 872.353303 907.902666 
L 823.827023 834.713647 
L 909.81129 899.131236 
z
" clip-path="url(#p89990071f3)" style="fill: #1c6ba2"/>
    <path d="M 853.377975 449.989247 
L 980.520934 443.712642 
L 897.271111 452.184828 
z
" clip-path="url(#p89990071f3)" style="fill: #1b699f"/>
    <path d="M 406.218095 951.262781 
L 363.498975 835.496634 
L 416.539243 873.529666 
z
" clip-path="url(#p89990071f3)" style="fill: #155078"/>
    <path d="M 978.205212 957.409427 
L 894.653269 996.297585 
L 898.433929 930.43724 
z
" clip-path="url(#p89990071f3)" style="fill: #114264"/>
    <path d="M 849.445051 504.805978 
L 846.290045 563.736994 
L 789.059149 594.340112 
z
" clip-path="url(#p89990071f3)" style="fill: #175987"/>
    <path d="M 984.770948 628.750291 
L 1064.987148 621.566128 
L 1049.219358 673.333141 
z
" clip-path="url(#p89990071f3)" style="fill: #175986"/>
    <path d="M 349.737509 783.27102 
L 410.595264 744.919032 
L 416.539243 873.529666 
z
" clip-path="url(#p89990071f3)" style="fill: #144c72"/>
    <path d="M 1050.567807 787.247159 
L 993.722143 859.000957 
L 936.361513 815.817417 
z
" clip-path="url(#p89990071f3)" style="fill: #185b89"/>
    <path d="M 1067.534791 478.599494 
L 993.891591 482.206656 
L 980.520934 443.712642 
z
" clip-path="url(#p89990071f3)" style="fill: #1e73af"/>
    <path d="M 897.271111 452.184828 
L 849.445051 504.805978 
L 853.377975 449.989247 
z
" clip-path="url(#p89990071f3)" style="fill: #155079"/>
    <path d="M 1077.378629 579.881332 
L 993.891591 482.206656 
L 1067.564825 539.936937 
z
" clip-path="url(#p89990071f3)" style="fill: #1c6ca3"/>
    <path d="M 993.722143 859.000957 
L 909.81129 899.131236 
L 936.361513 815.817417 
z
" clip-path="url(#p89990071f3)" style="fill: #124569"/>
    <path d="M 458.529412 662.605307 
L 370.394014 697.445103 
L 427.438377 633.135884 
z
" clip-path="url(#p89990071f3)" style="fill: #185b8a"/>
    <path d="M 381.29342 985.803753 
L 311.792979 861.623133 
L 406.218095 951.262781 
z
" clip-path="url(#p89990071f3)" style="fill: #124467"/>
    <path d="M 1049.219358 673.333141 
L 1050.567807 787.247159 
L 1045.695572 696.128743 
z
" clip-path="url(#p89990071f3)" style="fill: #185c8b"/>
    <path d="M 562.682913 1020.913261 
L 439.687181 1018.785579 
L 906.485527 894.413646 
z
" clip-path="url(#p89990071f3)" style="fill: #103f60"/>
    <path d="M 555.196174 585.962799 
L 540.874026 568.284098 
L 691.599815 602.327529 
z
" clip-path="url(#p89990071f3)" style="fill: #1d70aa"/>
    <path d="M 555.196174 585.962799 
L 427.438377 633.135884 
L 540.874026 568.284098 
z
" clip-path="url(#p89990071f3)" style="fill: #1a6498"/>
    <path d="M 406.218095 951.262781 
L 311.792979 861.623133 
L 363.498975 835.496634 
z
" clip-path="url(#p89990071f3)" style="fill: #1d6fa7"/>
    <path d="M 1067.534791 478.599494 
L 1067.564825 539.936937 
L 993.891591 482.206656 
z
" clip-path="url(#p89990071f3)" style="fill: #1a6497"/>
    <path d="M 978.205212 957.409427 
L 872.353303 907.902666 
L 887.404694 946.528216 
z
" clip-path="url(#p89990071f3)" style="fill: #1a6497"/>
    <path d="M 370.394014 697.445103 
L 410.595264 744.919032 
L 349.737509 783.27102 
z
" clip-path="url(#p89990071f3)" style="fill: #144d75"/>
    <path d="M 349.737509 783.27102 
L 416.539243 873.529666 
L 363.498975 835.496634 
z
" clip-path="url(#p89990071f3)" style="fill: #144c72"/>
    <path d="M 381.29342 985.803753 
L 406.218095 951.262781 
L 439.687181 1018.785579 
z
" clip-path="url(#p89990071f3)" style="fill: #114060"/>
    <path d="M 943.572163 444.165796 
L 980.520934 443.712642 
L 853.377975 449.989247 
z
" clip-path="url(#p89990071f3)" style="fill: #1b689e"/>
    <path d="M 845.478379 1052.03485 
L 562.682913 1020.913261 
L 906.485527 894.413646 
z
" clip-path="url(#p89990071f3)" style="fill: #114060"/>
    <path d="M 1077.378629 579.881332 
L 1077.899984 652.413349 
L 1064.987148 621.566128 
z
" clip-path="url(#p89990071f3)" style="fill: #175987"/>
    <path d="M 909.81129 899.131236 
L 887.404694 946.528216 
L 872.353303 907.902666 
z
" clip-path="url(#p89990071f3)" style="fill: #175783"/>
    <path d="M 894.653269 996.297585 
L 978.205212 957.409427 
L 887.404694 946.528216 
z
" clip-path="url(#p89990071f3)" style="fill: #0f3a57"/>
    <path d="M 894.653269 996.297585 
L 845.478379 1052.03485 
L 898.433929 930.43724 
z
" clip-path="url(#p89990071f3)" style="fill: #113f60"/>
    <path d="M 1077.899984 652.413349 
L 1049.219358 673.333141 
L 1064.987148 621.566128 
z
" clip-path="url(#p89990071f3)" style="fill: #165480"/>
    <path d="M 1067.534791 478.599494 
L 980.520934 443.712642 
L 943.572163 444.165796 
z
" clip-path="url(#p89990071f3)" style="fill: #1b689d"/>
    <path d="M 813.203157 600.923257 
L 789.059149 594.340112 
L 691.599815 602.327529 
z
" clip-path="url(#p89990071f3)" style="fill: #1b669a"/>
    <path d="M 413.99669 637.279508 
L 427.438377 633.135884 
L 370.394014 697.445103 
z
" clip-path="url(#p89990071f3)" style="fill: #165480"/>
    <path d="M 849.445051 504.805978 
L 789.059149 594.340112 
L 857.45765 490.052007 
z
" clip-path="url(#p89990071f3)" style="fill: #155079"/>
    <path d="M 427.438377 633.135884 
L 413.99669 637.279508 
L 540.874026 568.284098 
z
" clip-path="url(#p89990071f3)" style="fill: #185d8d"/>
    <path d="M 849.445051 504.805978 
L 857.45765 490.052007 
L 853.377975 449.989247 
z
" clip-path="url(#p89990071f3)" style="fill: #114061"/>
    <path d="M 311.792979 861.623133 
L 381.29342 985.803753 
L 327.643105 913.548164 
z
" clip-path="url(#p89990071f3)" style="fill: #0e3652"/>
    <path d="M 1067.564825 539.936937 
L 1077.899984 652.413349 
L 1077.378629 579.881332 
z
" clip-path="url(#p89990071f3)" style="fill: #175a88"/>
    <path d="M 1050.567807 787.247159 
L 1043.580408 785.224364 
L 993.722143 859.000957 
z
" clip-path="url(#p89990071f3)" style="fill: #12466a"/>
    <path d="M 1049.219358 673.333141 
L 1043.580408 785.224364 
L 1050.567807 787.247159 
z
" clip-path="url(#p89990071f3)" style="fill: #175885"/>
    <path d="M 540.874026 568.284098 
L 571.328361 585.647055 
L 691.599815 602.327529 
z
" clip-path="url(#p89990071f3)" style="fill: #1c6aa0"/>
    <path d="M 363.498975 835.496634 
L 311.792979 861.623133 
L 338.223427 867.96554 
z
" clip-path="url(#p89990071f3)" style="fill: #175885"/>
    <path d="M 857.45765 490.052007 
L 943.572163 444.165796 
L 853.377975 449.989247 
z
" clip-path="url(#p89990071f3)" style="fill: #175784"/>
    <path d="M 327.643105 913.548164 
L 381.29342 985.803753 
L 439.687181 1018.785579 
z
" clip-path="url(#p89990071f3)" style="fill: #0a283d"/>
    <path d="M 993.722143 859.000957 
L 980.01675 872.674841 
L 909.81129 899.131236 
z
" clip-path="url(#p89990071f3)" style="fill: #0f3b5a"/>
    <path d="M 349.737509 783.27102 
L 363.498975 835.496634 
L 378.422711 863.792842 
z
" clip-path="url(#p89990071f3)" style="fill: #0e354f"/>
    <path d="M 894.653269 996.297585 
L 887.404694 946.528216 
L 903.553208 1019.880671 
z
" clip-path="url(#p89990071f3)" style="fill: #196092"/>
    <path d="M 852.388658 551.617234 
L 789.059149 594.340112 
L 813.203157 600.923257 
z
" clip-path="url(#p89990071f3)" style="fill: #13476c"/>
    <path d="M 413.99669 637.279508 
L 571.328361 585.647055 
L 540.874026 568.284098 
z
" clip-path="url(#p89990071f3)" style="fill: #165682"/>
    <path d="M 1049.219358 673.333141 
L 1077.899984 652.413349 
L 1014.609158 698.889077 
z
" clip-path="url(#p89990071f3)" style="fill: #114061"/>
    <path d="M 338.223427 867.96554 
L 311.792979 861.623133 
L 327.643105 913.548164 
z
" clip-path="url(#p89990071f3)" style="fill: #0f3956"/>
    <path d="M 1067.534791 478.599494 
L 943.572163 444.165796 
L 970.337564 495.896962 
z
" clip-path="url(#p89990071f3)" style="fill: #175a88"/>
    <path d="M 857.45765 490.052007 
L 789.059149 594.340112 
L 852.388658 551.617234 
z
" clip-path="url(#p89990071f3)" style="fill: #0f3b59"/>
    <path d="M 744.034701 641.872916 
L 813.203157 600.923257 
L 691.599815 602.327529 
z
" clip-path="url(#p89990071f3)" style="fill: #175885"/>
    <path d="M 1034.467499 519.013769 
L 1067.564825 539.936937 
L 1067.534791 478.599494 
z
" clip-path="url(#p89990071f3)" style="fill: #16537e"/>
    <path d="M 363.498975 835.496634 
L 338.223427 867.96554 
L 378.422711 863.792842 
z
" clip-path="url(#p89990071f3)" style="fill: #195e8f"/>
    <path d="M 887.404694 946.528216 
L 909.81129 899.131236 
L 775.452553 1000.847005 
z
" clip-path="url(#p89990071f3)" style="fill: #114162"/>
    <path d="M 571.328361 585.647055 
L 744.034701 641.872916 
L 691.599815 602.327529 
z
" clip-path="url(#p89990071f3)" style="fill: #1b699e"/>
    <path d="M 980.01675 872.674841 
L 993.722143 859.000957 
L 1043.580408 785.224364 
z
" clip-path="url(#p89990071f3)" style="fill: #13486d"/>
    <path d="M 1014.609158 698.889077 
L 1043.580408 785.224364 
L 1049.219358 673.333141 
z
" clip-path="url(#p89990071f3)" style="fill: #165682"/>
    <path d="M 370.394014 697.445103 
L 349.737509 783.27102 
L 405.072308 750.459943 
z
" clip-path="url(#p89990071f3)" style="fill: #103e5e"/>
    <path d="M 562.682913 1020.913261 
L 495.161957 994.337322 
L 439.687181 1018.785579 
z
" clip-path="url(#p89990071f3)" style="fill: #0b283d"/>
    <path d="M 413.99669 637.279508 
L 370.394014 697.445103 
L 405.072308 750.459943 
z
" clip-path="url(#p89990071f3)" style="fill: #114061"/>
    <path d="M 903.553208 1019.880671 
L 845.478379 1052.03485 
L 894.653269 996.297585 
z
" clip-path="url(#p89990071f3)" style="fill: #114163"/>
    <path d="M 883.325782 471.508674 
L 943.572163 444.165796 
L 857.45765 490.052007 
z
" clip-path="url(#p89990071f3)" style="fill: #195f90"/>
    <path d="M 1028.507222 558.191119 
L 1077.899984 652.413349 
L 1067.564825 539.936937 
z
" clip-path="url(#p89990071f3)" style="fill: #16537e"/>
    <path d="M 378.73235 942.796154 
L 327.643105 913.548164 
L 439.687181 1018.785579 
z
" clip-path="url(#p89990071f3)" style="fill: #0a273b"/>
    <path d="M 943.572163 444.165796 
L 883.325782 471.508674 
L 970.337564 495.896962 
z
" clip-path="url(#p89990071f3)" style="fill: #16547f"/>
    <path d="M 1034.467499 519.013769 
L 1067.534791 478.599494 
L 970.337564 495.896962 
z
" clip-path="url(#p89990071f3)" style="fill: #195f8f"/>
    <path d="M 421.526335 920.806765 
L 439.687181 1018.785579 
L 495.161957 994.337322 
z
" clip-path="url(#p89990071f3)" style="fill: #092436"/>
    <path d="M 980.01675 872.674841 
L 843.097864 889.347301 
L 909.81129 899.131236 
z
" clip-path="url(#p89990071f3)" style="fill: #0c3048"/>
    <path d="M 887.404694 946.528216 
L 775.452553 1000.847005 
L 903.553208 1019.880671 
z
" clip-path="url(#p89990071f3)" style="fill: #15527c"/>
    <path d="M 378.73235 942.796154 
L 439.687181 1018.785579 
L 421.526335 920.806765 
z
" clip-path="url(#p89990071f3)" style="fill: #0c2f47"/>
    <path d="M 338.223427 867.96554 
L 327.643105 913.548164 
L 378.73235 942.796154 
z
" clip-path="url(#p89990071f3)" style="fill: #0b293d"/>
    <path d="M 405.072308 750.459943 
L 349.737509 783.27102 
L 378.422711 863.792842 
z
" clip-path="url(#p89990071f3)" style="fill: #0d324c"/>
    <path d="M 421.526335 920.806765 
L 378.422711 863.792842 
L 338.223427 867.96554 
z
" clip-path="url(#p89990071f3)" style="fill: #114162"/>
    <path d="M 571.328361 585.647055 
L 413.99669 637.279508 
L 480.28277 645.030302 
z
" clip-path="url(#p89990071f3)" style="fill: #16547f"/>
    <path d="M 843.097864 889.347301 
L 775.452553 1000.847005 
L 909.81129 899.131236 
z
" clip-path="url(#p89990071f3)" style="fill: #114061"/>
    <path d="M 1034.467499 519.013769 
L 1028.507222 558.191119 
L 1067.564825 539.936937 
z
" clip-path="url(#p89990071f3)" style="fill: #154f78"/>
    <path d="M 1028.507222 558.191119 
L 1014.609158 698.889077 
L 1077.899984 652.413349 
z
" clip-path="url(#p89990071f3)" style="fill: #103e5d"/>
    <path d="M 602.724827 1064.84229 
L 562.682913 1020.913261 
L 845.478379 1052.03485 
z
" clip-path="url(#p89990071f3)" style="fill: #113f60"/>
    <path d="M 589.838164 1014.537535 
L 495.161957 994.337322 
L 562.682913 1020.913261 
z
" clip-path="url(#p89990071f3)" style="fill: #0b293e"/>
    <path d="M 338.223427 867.96554 
L 378.73235 942.796154 
L 421.526335 920.806765 
z
" clip-path="url(#p89990071f3)" style="fill: #0d334d"/>
    <path d="M 852.388658 551.617234 
L 813.203157 600.923257 
L 899.019222 577.296534 
z
" clip-path="url(#p89990071f3)" style="fill: #0b2a3f"/>
    <path d="M 898.345547 654.922618 
L 813.203157 600.923257 
L 744.034701 641.872916 
z
" clip-path="url(#p89990071f3)" style="fill: #15517a"/>
    <path d="M 857.45765 490.052007 
L 793.745415 475.84869 
L 883.325782 471.508674 
z
" clip-path="url(#p89990071f3)" style="fill: #1b669b"/>
    <path d="M 602.724827 1064.84229 
L 589.838164 1014.537535 
L 562.682913 1020.913261 
z
" clip-path="url(#p89990071f3)" style="fill: #0c2f48"/>
    <path d="M 845.478379 1052.03485 
L 903.553208 1019.880671 
L 775.452553 1000.847005 
z
" clip-path="url(#p89990071f3)" style="fill: #0e3651"/>
    <path d="M 405.072308 750.459943 
L 480.28277 645.030302 
L 413.99669 637.279508 
z
" clip-path="url(#p89990071f3)" style="fill: #114263"/>
    <path d="M 857.45765 490.052007 
L 852.388658 551.617234 
L 793.745415 475.84869 
z
" clip-path="url(#p89990071f3)" style="fill: #15517a"/>
    <path d="M 899.019222 577.296534 
L 813.203157 600.923257 
L 898.345547 654.922618 
z
" clip-path="url(#p89990071f3)" style="fill: #0c2d44"/>
    <path d="M 970.337564 495.896962 
L 883.325782 471.508674 
L 892.082545 452.886507 
z
" clip-path="url(#p89990071f3)" style="fill: #1e73ae"/>
    <path d="M 969.00217 794.000595 
L 1043.580408 785.224364 
L 1014.609158 698.889077 
z
" clip-path="url(#p89990071f3)" style="fill: #12466a"/>
    <path d="M 969.00217 794.000595 
L 980.01675 872.674841 
L 1043.580408 785.224364 
z
" clip-path="url(#p89990071f3)" style="fill: #103c5a"/>
    <path d="M 744.034701 641.872916 
L 571.328361 585.647055 
L 593.804639 640.053973 
z
" clip-path="url(#p89990071f3)" style="fill: #175885"/>
    <path d="M 446.351826 856.416449 
L 378.422711 863.792842 
L 421.526335 920.806765 
z
" clip-path="url(#p89990071f3)" style="fill: #0b293e"/>
    <path d="M 775.452553 1000.847005 
L 602.724827 1064.84229 
L 845.478379 1052.03485 
z
" clip-path="url(#p89990071f3)" style="fill: #0c2d44"/>
    <path d="M 1000.704483 593.428621 
L 1014.609158 698.889077 
L 1028.507222 558.191119 
z
" clip-path="url(#p89990071f3)" style="fill: #0f3957"/>
    <path d="M 546.605393 980.441228 
L 421.526335 920.806765 
L 495.161957 994.337322 
z
" clip-path="url(#p89990071f3)" style="fill: #0a2538"/>
    <path d="M 1000.704483 593.428621 
L 898.345547 654.922618 
L 1014.609158 698.889077 
z
" clip-path="url(#p89990071f3)" style="fill: #0c2f47"/>
    <path d="M 571.328361 585.647055 
L 480.28277 645.030302 
L 593.804639 640.053973 
z
" clip-path="url(#p89990071f3)" style="fill: #144d74"/>
    <path d="M 980.01675 872.674841 
L 969.00217 794.000595 
L 843.097864 889.347301 
z
" clip-path="url(#p89990071f3)" style="fill: #0c2d44"/>
    <path d="M 898.345547 654.922618 
L 969.00217 794.000595 
L 1014.609158 698.889077 
z
" clip-path="url(#p89990071f3)" style="fill: #124466"/>
    <path d="M 892.082545 452.886507 
L 925.948843 515.276906 
L 970.337564 495.896962 
z
" clip-path="url(#p89990071f3)" style="fill: #134b71"/>
    <path d="M 589.838164 1014.537535 
L 602.724827 1064.84229 
L 775.452553 1000.847005 
z
" clip-path="url(#p89990071f3)" style="fill: #0c2d44"/>
    <path d="M 942.677321 587.757356 
L 899.019222 577.296534 
L 898.345547 654.922618 
z
" clip-path="url(#p89990071f3)" style="fill: #0c2e45"/>
    <path d="M 546.605393 980.441228 
L 495.161957 994.337322 
L 589.838164 1014.537535 
z
" clip-path="url(#p89990071f3)" style="fill: #0a2639"/>
    <path d="M 405.072308 750.459943 
L 378.422711 863.792842 
L 446.351826 856.416449 
z
" clip-path="url(#p89990071f3)" style="fill: #0c2c43"/>
    <path d="M 1000.704483 593.428621 
L 942.677321 587.757356 
L 898.345547 654.922618 
z
" clip-path="url(#p89990071f3)" style="fill: #0c2f47"/>
    <path d="M 925.948843 515.276906 
L 899.019222 577.296534 
L 942.677321 587.757356 
z
" clip-path="url(#p89990071f3)" style="fill: #0a283d"/>
    <path d="M 956.971695 539.236116 
L 970.337564 495.896962 
L 925.948843 515.276906 
z
" clip-path="url(#p89990071f3)" style="fill: #175987"/>
    <path d="M 739.27376 1006.838427 
L 589.838164 1014.537535 
L 775.452553 1000.847005 
z
" clip-path="url(#p89990071f3)" style="fill: #0d344e"/>
    <path d="M 1028.019814 485.122412 
L 1034.467499 519.013769 
L 970.337564 495.896962 
z
" clip-path="url(#p89990071f3)" style="fill: #1e72ad"/>
    <path d="M 744.034701 641.872916 
L 768.689856 743.176596 
L 898.345547 654.922618 
z
" clip-path="url(#p89990071f3)" style="fill: #12466a"/>
    <path d="M 799.43445 834.135213 
L 843.097864 889.347301 
L 969.00217 794.000595 
z
" clip-path="url(#p89990071f3)" style="fill: #0c2e46"/>
    <path d="M 829.124587 927.648521 
L 775.452553 1000.847005 
L 843.097864 889.347301 
z
" clip-path="url(#p89990071f3)" style="fill: #144e76"/>
    <path d="M 898.345547 654.922618 
L 872.426213 709.986266 
L 969.00217 794.000595 
z
" clip-path="url(#p89990071f3)" style="fill: #114264"/>
    <path d="M 675.747381 713.459551 
L 744.034701 641.872916 
L 593.804639 640.053973 
z
" clip-path="url(#p89990071f3)" style="fill: #144c73"/>
    <path d="M 925.948843 515.276906 
L 942.677321 587.757356 
L 956.971695 539.236116 
z
" clip-path="url(#p89990071f3)" style="fill: #0b2b41"/>
    <path d="M 984.923912 592.07889 
L 942.677321 587.757356 
L 1000.704483 593.428621 
z
" clip-path="url(#p89990071f3)" style="fill: #0c3048"/>
    <path d="M 883.325782 471.508674 
L 775.49366 418.471004 
L 892.082545 452.886507 
z
" clip-path="url(#p89990071f3)" style="fill: #1d6fa8"/>
    <path d="M 1052.808958 526.730738 
L 1028.507222 558.191119 
L 1034.467499 519.013769 
z
" clip-path="url(#p89990071f3)" style="fill: #175987"/>
    <path d="M 793.745415 475.84869 
L 775.49366 418.471004 
L 883.325782 471.508674 
z
" clip-path="url(#p89990071f3)" style="fill: #1b669b"/>
    <path d="M 421.526335 920.806765 
L 546.605393 980.441228 
L 545.398265 914.074015 
z
" clip-path="url(#p89990071f3)" style="fill: #0a2539"/>
    <path d="M 421.526335 920.806765 
L 545.398265 914.074015 
L 446.351826 856.416449 
z
" clip-path="url(#p89990071f3)" style="fill: #092436"/>
    <path d="M 775.452553 1000.847005 
L 829.124587 927.648521 
L 739.27376 1006.838427 
z
" clip-path="url(#p89990071f3)" style="fill: #0e3652"/>
    <path d="M 793.745415 475.84869 
L 852.388658 551.617234 
L 742.844238 530.007306 
z
" clip-path="url(#p89990071f3)" style="fill: #144b71"/>
    <path d="M 872.426213 709.986266 
L 898.345547 654.922618 
L 768.689856 743.176596 
z
" clip-path="url(#p89990071f3)" style="fill: #114061"/>
    <path d="M 768.689856 743.176596 
L 744.034701 641.872916 
L 675.747381 713.459551 
z
" clip-path="url(#p89990071f3)" style="fill: #144d74"/>
    <path d="M 405.072308 750.459943 
L 565.868689 726.563399 
L 480.28277 645.030302 
z
" clip-path="url(#p89990071f3)" style="fill: #0f3a58"/>
    <path d="M 799.43445 834.135213 
L 829.124587 927.648521 
L 843.097864 889.347301 
z
" clip-path="url(#p89990071f3)" style="fill: #185b8a"/>
    <path d="M 593.804639 640.053973 
L 480.28277 645.030302 
L 565.868689 726.563399 
z
" clip-path="url(#p89990071f3)" style="fill: #124467"/>
    <path d="M 753.231474 556.258312 
L 852.388658 551.617234 
L 899.019222 577.296534 
z
" clip-path="url(#p89990071f3)" style="fill: #0e344f"/>
    <path d="M 662.397925 950.47976 
L 589.838164 1014.537535 
L 739.27376 1006.838427 
z
" clip-path="url(#p89990071f3)" style="fill: #0a273c"/>
    <path d="M 768.689856 743.176596 
L 969.00217 794.000595 
L 872.426213 709.986266 
z
" clip-path="url(#p89990071f3)" style="fill: #0e3754"/>
    <path d="M 942.677321 587.757356 
L 984.923912 592.07889 
L 956.971695 539.236116 
z
" clip-path="url(#p89990071f3)" style="fill: #0b2c43"/>
    <path d="M 589.838164 1014.537535 
L 662.397925 950.47976 
L 546.605393 980.441228 
z
" clip-path="url(#p89990071f3)" style="fill: #0a283c"/>
    <path d="M 969.00217 794.000595 
L 768.689856 743.176596 
L 799.43445 834.135213 
z
" clip-path="url(#p89990071f3)" style="fill: #0d314b"/>
    <path d="M 405.072308 750.459943 
L 446.351826 856.416449 
L 495.19305 800.142247 
z
" clip-path="url(#p89990071f3)" style="fill: #0b2c43"/>
    <path d="M 925.948843 515.276906 
L 808.856573 545.168052 
L 899.019222 577.296534 
z
" clip-path="url(#p89990071f3)" style="fill: #103e5e"/>
    <path d="M 1028.019814 485.122412 
L 1052.808958 526.730738 
L 1034.467499 519.013769 
z
" clip-path="url(#p89990071f3)" style="fill: #1b689e"/>
    <path d="M 593.804639 640.053973 
L 565.868689 726.563399 
L 675.747381 713.459551 
z
" clip-path="url(#p89990071f3)" style="fill: #13476c"/>
    <path d="M 662.397925 950.47976 
L 739.27376 1006.838427 
L 829.124587 927.648521 
z
" clip-path="url(#p89990071f3)" style="fill: #0b2a40"/>
    <path d="M 892.082545 452.886507 
L 847.860724 465.799297 
L 925.948843 515.276906 
z
" clip-path="url(#p89990071f3)" style="fill: #185b8a"/>
    <path d="M 1035.145951 632.917931 
L 1000.704483 593.428621 
L 1028.507222 558.191119 
z
" clip-path="url(#p89990071f3)" style="fill: #154f77"/>
    <path d="M 565.868689 726.563399 
L 405.072308 750.459943 
L 495.19305 800.142247 
z
" clip-path="url(#p89990071f3)" style="fill: #0c2f47"/>
    <path d="M 768.689856 743.176596 
L 673.65512 811.552062 
L 799.43445 834.135213 
z
" clip-path="url(#p89990071f3)" style="fill: #0d314b"/>
    <path d="M 970.337564 495.896962 
L 956.971695 539.236116 
L 967.568315 512.044853 
z
" clip-path="url(#p89990071f3)" style="fill: #13486d"/>
    <path d="M 545.398265 914.074015 
L 546.605393 980.441228 
L 662.397925 950.47976 
z
" clip-path="url(#p89990071f3)" style="fill: #0a273a"/>
    <path d="M 545.398265 914.074015 
L 495.19305 800.142247 
L 446.351826 856.416449 
z
" clip-path="url(#p89990071f3)" style="fill: #0b293e"/>
    <path d="M 675.747381 713.459551 
L 580.358918 788.873526 
L 768.689856 743.176596 
z
" clip-path="url(#p89990071f3)" style="fill: #0e3651"/>
    <path d="M 768.689856 743.176596 
L 580.358918 788.873526 
L 673.65512 811.552062 
z
" clip-path="url(#p89990071f3)" style="fill: #0d324b"/>
    <path d="M 799.43445 834.135213 
L 673.65512 811.552062 
L 772.99608 869.93852 
z
" clip-path="url(#p89990071f3)" style="fill: #175884"/>
    <path d="M 772.99608 869.93852 
L 829.124587 927.648521 
L 799.43445 834.135213 
z
" clip-path="url(#p89990071f3)" style="fill: #16537e"/>
    <path d="M 742.844238 530.007306 
L 852.388658 551.617234 
L 753.231474 556.258312 
z
" clip-path="url(#p89990071f3)" style="fill: #103c5b"/>
    <path d="M 565.868689 726.563399 
L 580.358918 788.873526 
L 675.747381 713.459551 
z
" clip-path="url(#p89990071f3)" style="fill: #0e344f"/>
    <path d="M 1028.019814 485.122412 
L 970.337564 495.896962 
L 967.568315 512.044853 
z
" clip-path="url(#p89990071f3)" style="fill: #196091"/>
    <path d="M 565.868689 726.563399 
L 495.19305 800.142247 
L 580.358918 788.873526 
z
" clip-path="url(#p89990071f3)" style="fill: #0b2b41"/>
    <path d="M 545.398265 914.074015 
L 606.393924 870.63405 
L 495.19305 800.142247 
z
" clip-path="url(#p89990071f3)" style="fill: #0b2a3f"/>
    <path d="M 580.358918 788.873526 
L 495.19305 800.142247 
L 606.393924 870.63405 
z
" clip-path="url(#p89990071f3)" style="fill: #0d314a"/>
    <path d="M 580.358918 788.873526 
L 606.393924 870.63405 
L 673.65512 811.552062 
z
" clip-path="url(#p89990071f3)" style="fill: #0f3854"/>
    <path d="M 984.923912 592.07889 
L 1000.704483 593.428621 
L 1035.145951 632.917931 
z
" clip-path="url(#p89990071f3)" style="fill: #0d314a"/>
    <path d="M 741.092223 940.633552 
L 662.397925 950.47976 
L 829.124587 927.648521 
z
" clip-path="url(#p89990071f3)" style="fill: #0d344e"/>
    <path d="M 545.398265 914.074015 
L 662.397925 950.47976 
L 772.99608 869.93852 
z
" clip-path="url(#p89990071f3)" style="fill: #0b2a3f"/>
    <path d="M 1038.06487 566.031296 
L 1028.507222 558.191119 
L 1052.808958 526.730738 
z
" clip-path="url(#p89990071f3)" style="fill: #154f77"/>
    <path d="M 606.393924 870.63405 
L 772.99608 869.93852 
L 673.65512 811.552062 
z
" clip-path="url(#p89990071f3)" style="fill: #0f3b59"/>
    <path d="M 847.860724 465.799297 
L 892.082545 452.886507 
L 775.49366 418.471004 
z
" clip-path="url(#p89990071f3)" style="fill: #1a6599"/>
    <path d="M 606.393924 870.63405 
L 545.398265 914.074015 
L 772.99608 869.93852 
z
" clip-path="url(#p89990071f3)" style="fill: #0b293e"/>
    <path d="M 741.092223 940.633552 
L 829.124587 927.648521 
L 772.99608 869.93852 
z
" clip-path="url(#p89990071f3)" style="fill: #0d334d"/>
    <path d="M 808.856573 545.168052 
L 753.231474 556.258312 
L 899.019222 577.296534 
z
" clip-path="url(#p89990071f3)" style="fill: #0d3049"/>
    <path d="M 772.99608 869.93852 
L 662.397925 950.47976 
L 741.092223 940.633552 
z
" clip-path="url(#p89990071f3)" style="fill: #0b2c42"/>
    <path d="M 847.860724 465.799297 
L 808.856573 545.168052 
L 925.948843 515.276906 
z
" clip-path="url(#p89990071f3)" style="fill: #103f5f"/>
    <path d="M 793.745415 475.84869 
L 752.005475 463.365512 
L 775.49366 418.471004 
z
" clip-path="url(#p89990071f3)" style="fill: #13486c"/>
    <path d="M 742.844238 530.007306 
L 752.005475 463.365512 
L 793.745415 475.84869 
z
" clip-path="url(#p89990071f3)" style="fill: #15517a"/>
    <path d="M 956.971695 539.236116 
L 984.923912 592.07889 
L 937.670734 595.469529 
z
" clip-path="url(#p89990071f3)" style="fill: #103c5a"/>
    <path d="M 1089.046986 499.397459 
L 1052.808958 526.730738 
L 1028.019814 485.122412 
z
" clip-path="url(#p89990071f3)" style="fill: #1d71ab"/>
    <path d="M 1028.507222 558.191119 
L 1046.859729 613.875252 
L 1035.145951 632.917931 
z
" clip-path="url(#p89990071f3)" style="fill: #175884"/>
    <path d="M 1038.06487 566.031296 
L 1046.859729 613.875252 
L 1028.507222 558.191119 
z
" clip-path="url(#p89990071f3)" style="fill: #195e8e"/>
    <path d="M 1089.046986 499.397459 
L 1038.06487 566.031296 
L 1052.808958 526.730738 
z
" clip-path="url(#p89990071f3)" style="fill: #144c74"/>
    <path d="M 956.971695 539.236116 
L 917.552534 525.802633 
L 967.568315 512.044853 
z
" clip-path="url(#p89990071f3)" style="fill: #196193"/>
    <path d="M 752.005475 463.365512 
L 742.844238 530.007306 
L 753.231474 556.258312 
z
" clip-path="url(#p89990071f3)" style="fill: #0e3652"/>
    <path d="M 813.066092 456.045184 
L 847.860724 465.799297 
L 775.49366 418.471004 
z
" clip-path="url(#p89990071f3)" style="fill: #1b689e"/>
    <path d="M 1035.145951 632.917931 
L 937.670734 595.469529 
L 984.923912 592.07889 
z
" clip-path="url(#p89990071f3)" style="fill: #0d324b"/>
    <path d="M 1028.019814 485.122412 
L 967.568315 512.044853 
L 1059.29921 475.315303 
z
" clip-path="url(#p89990071f3)" style="fill: #196091"/>
    <path d="M 1028.019814 485.122412 
L 1059.29921 475.315303 
L 1089.046986 499.397459 
z
" clip-path="url(#p89990071f3)" style="fill: #1d71aa"/>
    <path d="M 753.231474 556.258312 
L 808.856573 545.168052 
L 834.445239 520.378841 
z
" clip-path="url(#p89990071f3)" style="fill: #0d324b"/>
    <path d="M 808.856573 545.168052 
L 847.860724 465.799297 
L 834.445239 520.378841 
z
" clip-path="url(#p89990071f3)" style="fill: #16547e"/>
    <path d="M 752.005475 463.365512 
L 813.066092 456.045184 
L 775.49366 418.471004 
z
" clip-path="url(#p89990071f3)" style="fill: #175784"/>
    <path d="M 937.670734 595.469529 
L 917.552534 525.802633 
L 956.971695 539.236116 
z
" clip-path="url(#p89990071f3)" style="fill: #113f60"/>
    <path d="M 834.445239 520.378841 
L 847.860724 465.799297 
L 813.066092 456.045184 
z
" clip-path="url(#p89990071f3)" style="fill: #165682"/>
    <path d="M 752.005475 463.365512 
L 753.231474 556.258312 
L 796.235414 511.883854 
z
" clip-path="url(#p89990071f3)" style="fill: #0b293f"/>
    <path d="M 834.445239 520.378841 
L 796.235414 511.883854 
L 753.231474 556.258312 
z
" clip-path="url(#p89990071f3)" style="fill: #0b293e"/>
    <path d="M 1089.046986 499.397459 
L 1037.717687 516.173885 
L 1038.06487 566.031296 
z
" clip-path="url(#p89990071f3)" style="fill: #114264"/>
    <path d="M 813.066092 456.045184 
L 752.005475 463.365512 
L 796.235414 511.883854 
z
" clip-path="url(#p89990071f3)" style="fill: #0f3957"/>
    <path d="M 1037.717687 516.173885 
L 1089.046986 499.397459 
L 1059.29921 475.315303 
z
" clip-path="url(#p89990071f3)" style="fill: #154f78"/>
    <path d="M 813.066092 456.045184 
L 796.235414 511.883854 
L 834.445239 520.378841 
z
" clip-path="url(#p89990071f3)" style="fill: #114061"/>
    <path d="M 967.568315 512.044853 
L 970.783093 484.448111 
L 1059.29921 475.315303 
z
" clip-path="url(#p89990071f3)" style="fill: #1b689e"/>
    <path d="M 1037.717687 516.173885 
L 1046.859729 613.875252 
L 1038.06487 566.031296 
z
" clip-path="url(#p89990071f3)" style="fill: #195e8e"/>
    <path d="M 967.568315 512.044853 
L 917.552534 525.802633 
L 970.783093 484.448111 
z
" clip-path="url(#p89990071f3)" style="fill: #196092"/>
    <path d="M 969.648269 592.819417 
L 1035.145951 632.917931 
L 1046.859729 613.875252 
z
" clip-path="url(#p89990071f3)" style="fill: #0b2a40"/>
    <path d="M 937.670734 595.469529 
L 1035.145951 632.917931 
L 969.648269 592.819417 
z
" clip-path="url(#p89990071f3)" style="fill: #0b2a3f"/>
    <path d="M 917.552534 525.802633 
L 937.670734 595.469529 
L 969.648269 592.819417 
z
" clip-path="url(#p89990071f3)" style="fill: #0b2b40"/>
    <path d="M 1059.29921 475.315303 
L 970.783093 484.448111 
L 1037.717687 516.173885 
z
" clip-path="url(#p89990071f3)" style="fill: #15517a"/>
    <path d="M 1037.717687 516.173885 
L 969.648269 592.819417 
L 1046.859729 613.875252 
z
" clip-path="url(#p89990071f3)" style="fill: #0e3652"/>
    <path d="M 970.783093 484.448111 
L 917.552534 525.802633 
L 969.648269 592.819417 
z
" clip-path="url(#p89990071f3)" style="fill: #0b2c43"/>
    <path d="M 970.783093 484.448111 
L 969.648269 592.819417 
L 1037.717687 516.173885 
z
" clip-path="url(#p89990071f3)" style="fill: #0d324c"/>
   </g>
  </g>
 </g>
 <defs>
  <clipPath id="p89990071f3">
   <rect x="10.8" y="10.8" width="1418.4" height="1418.4"/>
  </clipPath>
 </defs>
</svg>
