<?xml version="1.0" encoding="utf-8" standalone="no"?>
<!DOCTYPE svg PUBLIC "-//W3C//DTD SVG 1.1//EN"
  "http://www.w3.org/Graphics/SVG/1.1/DTD/svg11.dtd">
<svg xmlns:xlink="http://www.w3.org/1999/xlink" width="1440pt" height="1440pt" viewBox="0 0 1440 1440" xmlns="http://www.w3.org/2000/svg" version="1.1">
 <metadata>
  <rdf:RDF xmlns:dc="http://purl.org/dc/elements/1.1/" xmlns:cc="http://creativecommons.org/ns#" xmlns:rdf="http://www.w3.org/1999/02/22-rdf-syntax-ns#">
   <cc:Work>
    <dc:type rdf:resource="http://purl.org/dc/dcmitype/StillImage"/>
    <dc:date>2023-03-30T00:16:55.978979</dc:date>
    <dc:format>image/svg+xml</dc:format>
    <dc:creator>
     <cc:Agent>
      <dc:title>Matplotlib v3.6.2, https://matplotlib.org/</dc:title>
     </cc:Agent>
    </dc:creator>
   </cc:Work>
  </rdf:RDF>
 </metadata>
 <defs>
  <style type="text/css">*{stroke-linejoin: round; stroke-linecap: butt}</style>
 </defs>
 <g id="figure_1">
  <g id="patch_1">
   <path d="M 0 1440 
L 1440 1440 
L 1440 0 
L 0 0 
L 0 1440 
z
" style="fill: none"/>
  </g>
  <g id="patch_2">
   <path d="M 10.8 1429.2 
L 1429.2 1429.2 
L 1429.2 10.8 
L 10.8 10.8 
L 10.8 1429.2 
z
" style="fill: none"/>
  </g>
  <g id="axes_1">
   <g id="Poly3DCollection_1">
    <path d="M 508.372987 647.783438 
L 491.633788 605.652037 
L 653.768166 629.487786 
z
" clip-path="url(#p1696c58d60)" style="fill: #1a6295"/>
    <path d="M 507.052605 533.258751 
L 661.099855 584.166884 
L 653.768166 629.487786 
z
" clip-path="url(#p1696c58d60)" style="fill: #1d6ea6"/>
    <path d="M 491.633788 605.652037 
L 507.052605 533.258751 
L 653.768166 629.487786 
z
" clip-path="url(#p1696c58d60)" style="fill: #1c6aa0"/>
    <path d="M 661.099855 584.166884 
L 780.967872 620.741902 
L 653.768166 629.487786 
z
" clip-path="url(#p1696c58d60)" style="fill: #175987"/>
    <path d="M 703.440359 667.647512 
L 733.000934 774.631989 
L 641.932688 710.581432 
z
" clip-path="url(#p1696c58d60)" style="fill: #185c8b"/>
    <path d="M 508.372987 647.783438 
L 653.768166 629.487786 
L 569.759085 666.550641 
z
" clip-path="url(#p1696c58d60)" style="fill: #154f78"/>
    <path d="M 780.967872 620.741902 
L 703.440359 667.647512 
L 653.768166 629.487786 
z
" clip-path="url(#p1696c58d60)" style="fill: #165480"/>
    <path d="M 661.099855 584.166884 
L 507.052605 533.258751 
L 711.201457 528.769215 
z
" clip-path="url(#p1696c58d60)" style="fill: #1c6ca3"/>
    <path d="M 641.932688 710.581432 
L 553.458524 746.536179 
L 569.759085 666.550641 
z
" clip-path="url(#p1696c58d60)" style="fill: #1e74af"/>
    <path d="M 569.759085 666.550641 
L 653.768166 629.487786 
L 703.440359 667.647512 
z
" clip-path="url(#p1696c58d60)" style="fill: #175986"/>
    <path d="M 641.932688 710.581432 
L 569.759085 666.550641 
L 703.440359 667.647512 
z
" clip-path="url(#p1696c58d60)" style="fill: #1d6fa8"/>
    <path d="M 641.932688 710.581432 
L 733.000934 774.631989 
L 537.347137 812.083331 
z
" clip-path="url(#p1696c58d60)" style="fill: #196294"/>
    <path d="M 711.201457 528.769215 
L 780.967872 620.741902 
L 661.099855 584.166884 
z
" clip-path="url(#p1696c58d60)" style="fill: #175a88"/>
    <path d="M 641.932688 710.581432 
L 537.347137 812.083331 
L 553.458524 746.536179 
z
" clip-path="url(#p1696c58d60)" style="fill: #1a6599"/>
    <path d="M 491.633788 605.652037 
L 508.372987 647.783438 
L 431.732548 576.367362 
z
" clip-path="url(#p1696c58d60)" style="fill: #1b699e"/>
    <path d="M 507.052605 533.258751 
L 491.633788 605.652037 
L 431.732548 576.367362 
z
" clip-path="url(#p1696c58d60)" style="fill: #1f77b4"/>
    <path d="M 670.597278 478.73555 
L 711.201457 528.769215 
L 507.052605 533.258751 
z
" clip-path="url(#p1696c58d60)" style="fill: #1a6497"/>
    <path d="M 703.440359 667.647512 
L 850.504096 734.819662 
L 733.000934 774.631989 
z
" clip-path="url(#p1696c58d60)" style="fill: #175885"/>
    <path d="M 733.000934 774.631989 
L 589.126575 858.258243 
L 537.347137 812.083331 
z
" clip-path="url(#p1696c58d60)" style="fill: #1a6396"/>
    <path d="M 670.597278 478.73555 
L 507.052605 533.258751 
L 572.660436 474.594831 
z
" clip-path="url(#p1696c58d60)" style="fill: #1e73af"/>
    <path d="M 733.000934 774.631989 
L 735.822687 851.04172 
L 589.126575 858.258243 
z
" clip-path="url(#p1696c58d60)" style="fill: #185b89"/>
    <path d="M 733.000934 774.631989 
L 850.504096 734.819662 
L 735.822687 851.04172 
z
" clip-path="url(#p1696c58d60)" style="fill: #12466a"/>
    <path d="M 503.52651 678.499141 
L 508.372987 647.783438 
L 569.759085 666.550641 
z
" clip-path="url(#p1696c58d60)" style="fill: #134b71"/>
    <path d="M 703.440359 667.647512 
L 780.967872 620.741902 
L 821.464668 658.174633 
z
" clip-path="url(#p1696c58d60)" style="fill: #114061"/>
    <path d="M 569.759085 666.550641 
L 553.458524 746.536179 
L 503.52651 678.499141 
z
" clip-path="url(#p1696c58d60)" style="fill: #1f75b2"/>
    <path d="M 798.828966 482.486859 
L 711.201457 528.769215 
L 670.597278 478.73555 
z
" clip-path="url(#p1696c58d60)" style="fill: #16537e"/>
    <path d="M 508.372987 647.783438 
L 420.461408 633.396872 
L 431.732548 576.367362 
z
" clip-path="url(#p1696c58d60)" style="fill: #1c6ba2"/>
    <path d="M 823.773171 514.626822 
L 780.967872 620.741902 
L 711.201457 528.769215 
z
" clip-path="url(#p1696c58d60)" style="fill: #16537e"/>
    <path d="M 553.458524 746.536179 
L 537.347137 812.083331 
L 451.395473 744.524199 
z
" clip-path="url(#p1696c58d60)" style="fill: #1d71ab"/>
    <path d="M 821.464668 658.174633 
L 850.504096 734.819662 
L 703.440359 667.647512 
z
" clip-path="url(#p1696c58d60)" style="fill: #165682"/>
    <path d="M 507.052605 533.258751 
L 431.732548 576.367362 
L 478.416034 513.5499 
z
" clip-path="url(#p1696c58d60)" style="fill: #1e74b0"/>
    <path d="M 478.416034 513.5499 
L 572.660436 474.594831 
L 507.052605 533.258751 
z
" clip-path="url(#p1696c58d60)" style="fill: #1e74af"/>
    <path d="M 503.52651 678.499141 
L 420.461408 633.396872 
L 508.372987 647.783438 
z
" clip-path="url(#p1696c58d60)" style="fill: #175784"/>
    <path d="M 608.150932 975.247917 
L 656.064528 935.032361 
L 735.310803 954.196524 
z
" clip-path="url(#p1696c58d60)" style="fill: #1e72ac"/>
    <path d="M 503.52651 678.499141 
L 553.458524 746.536179 
L 451.395473 744.524199 
z
" clip-path="url(#p1696c58d60)" style="fill: #1f77b3"/>
    <path d="M 670.597278 478.73555 
L 572.660436 474.594831 
L 650.358472 453.386517 
z
" clip-path="url(#p1696c58d60)" style="fill: #1b689d"/>
    <path d="M 823.773171 514.626822 
L 821.464668 658.174633 
L 780.967872 620.741902 
z
" clip-path="url(#p1696c58d60)" style="fill: #103e5d"/>
    <path d="M 798.828966 482.486859 
L 823.773171 514.626822 
L 711.201457 528.769215 
z
" clip-path="url(#p1696c58d60)" style="fill: #154f78"/>
    <path d="M 537.347137 812.083331 
L 589.126575 858.258243 
L 540.764516 901.555772 
z
" clip-path="url(#p1696c58d60)" style="fill: #196192"/>
    <path d="M 871.553579 820.839556 
L 735.822687 851.04172 
L 850.504096 734.819662 
z
" clip-path="url(#p1696c58d60)" style="fill: #13486d"/>
    <path d="M 735.822687 851.04172 
L 760.585634 890.097304 
L 589.126575 858.258243 
z
" clip-path="url(#p1696c58d60)" style="fill: #124569"/>
    <path d="M 466.946275 795.78065 
L 451.395473 744.524199 
L 537.347137 812.083331 
z
" clip-path="url(#p1696c58d60)" style="fill: #1e71ab"/>
    <path d="M 735.310803 954.196524 
L 656.064528 935.032361 
L 661.284625 935.423384 
z
" clip-path="url(#p1696c58d60)" style="fill: #175885"/>
    <path d="M 420.461408 633.396872 
L 478.416034 513.5499 
L 431.732548 576.367362 
z
" clip-path="url(#p1696c58d60)" style="fill: #1b679b"/>
    <path d="M 798.828966 482.486859 
L 670.597278 478.73555 
L 751.771231 475.376786 
z
" clip-path="url(#p1696c58d60)" style="fill: #195f8f"/>
    <path d="M 735.310803 954.196524 
L 770.41707 989.146901 
L 608.150932 975.247917 
z
" clip-path="url(#p1696c58d60)" style="fill: #114264"/>
    <path d="M 521.652888 965.691115 
L 625.53028 962.016335 
L 608.150932 975.247917 
z
" clip-path="url(#p1696c58d60)" style="fill: #185e8e"/>
    <path d="M 458.906129 961.843 
L 500.001521 927.573276 
L 521.652888 965.691115 
z
" clip-path="url(#p1696c58d60)" style="fill: #1e72ad"/>
    <path d="M 537.347137 812.083331 
L 540.764516 901.555772 
L 466.946275 795.78065 
z
" clip-path="url(#p1696c58d60)" style="fill: #1a6396"/>
    <path d="M 458.906129 961.843 
L 521.652888 965.691115 
L 469.158888 994.688149 
z
" clip-path="url(#p1696c58d60)" style="fill: #16537e"/>
    <path d="M 670.597278 478.73555 
L 650.358472 453.386517 
L 751.771231 475.376786 
z
" clip-path="url(#p1696c58d60)" style="fill: #175a88"/>
    <path d="M 656.064528 935.032361 
L 608.150932 975.247917 
L 625.53028 962.016335 
z
" clip-path="url(#p1696c58d60)" style="fill: #1d6fa8"/>
    <path d="M 735.822687 851.04172 
L 871.553579 820.839556 
L 760.585634 890.097304 
z
" clip-path="url(#p1696c58d60)" style="fill: #0f3b5a"/>
    <path d="M 903.531104 730.880425 
L 850.504096 734.819662 
L 821.464668 658.174633 
z
" clip-path="url(#p1696c58d60)" style="fill: #12466a"/>
    <path d="M 625.53028 962.016335 
L 521.652888 965.691115 
L 500.001521 927.573276 
z
" clip-path="url(#p1696c58d60)" style="fill: #185b8a"/>
    <path d="M 760.585634 890.097304 
L 540.764516 901.555772 
L 589.126575 858.258243 
z
" clip-path="url(#p1696c58d60)" style="fill: #124569"/>
    <path d="M 735.310803 954.196524 
L 661.284625 935.423384 
L 777.21207 935.443557 
z
" clip-path="url(#p1696c58d60)" style="fill: #1a6497"/>
    <path d="M 833.720211 548.241357 
L 821.464668 658.174633 
L 823.773171 514.626822 
z
" clip-path="url(#p1696c58d60)" style="fill: #0f3957"/>
    <path d="M 503.52651 678.499141 
L 490.052678 629.106851 
L 420.461408 633.396872 
z
" clip-path="url(#p1696c58d60)" style="fill: #114162"/>
    <path d="M 903.531104 730.880425 
L 871.553579 820.839556 
L 850.504096 734.819662 
z
" clip-path="url(#p1696c58d60)" style="fill: #103c5a"/>
    <path d="M 770.41707 989.146901 
L 735.310803 954.196524 
L 777.21207 935.443557 
z
" clip-path="url(#p1696c58d60)" style="fill: #0f3a57"/>
    <path d="M 933.850566 449.037547 
L 823.773171 514.626822 
L 798.828966 482.486859 
z
" clip-path="url(#p1696c58d60)" style="fill: #175987"/>
    <path d="M 608.150932 975.247917 
L 890.184302 1009.562975 
L 521.652888 965.691115 
z
" clip-path="url(#p1696c58d60)" style="fill: #103f5f"/>
    <path d="M 625.53028 962.016335 
L 661.284625 935.423384 
L 656.064528 935.032361 
z
" clip-path="url(#p1696c58d60)" style="fill: #1d6ea6"/>
    <path d="M 547.448694 492.323128 
L 572.660436 474.594831 
L 478.416034 513.5499 
z
" clip-path="url(#p1696c58d60)" style="fill: #1b699f"/>
    <path d="M 650.358472 453.386517 
L 572.660436 474.594831 
L 547.448694 492.323128 
z
" clip-path="url(#p1696c58d60)" style="fill: #1b689e"/>
    <path d="M 500.001521 927.573276 
L 458.906129 961.843 
L 469.158888 994.688149 
z
" clip-path="url(#p1696c58d60)" style="fill: #1b669a"/>
    <path d="M 907.306638 416.422262 
L 933.850566 449.037547 
L 798.828966 482.486859 
z
" clip-path="url(#p1696c58d60)" style="fill: #1b689e"/>
    <path d="M 569.00759 543.29027 
L 478.416034 513.5499 
L 420.461408 633.396872 
z
" clip-path="url(#p1696c58d60)" style="fill: #15527c"/>
    <path d="M 907.306638 416.422262 
L 798.828966 482.486859 
L 751.771231 475.376786 
z
" clip-path="url(#p1696c58d60)" style="fill: #1e72ad"/>
    <path d="M 661.284625 935.423384 
L 540.764516 901.555772 
L 760.585634 890.097304 
z
" clip-path="url(#p1696c58d60)" style="fill: #1c6ba2"/>
    <path d="M 472.459676 717.535339 
L 503.52651 678.499141 
L 451.395473 744.524199 
z
" clip-path="url(#p1696c58d60)" style="fill: #1d6ea7"/>
    <path d="M 466.946275 795.78065 
L 444.518247 861.216014 
L 451.395473 744.524199 
z
" clip-path="url(#p1696c58d60)" style="fill: #1c6ba1"/>
    <path d="M 540.764516 901.555772 
L 661.284625 935.423384 
L 625.53028 962.016335 
z
" clip-path="url(#p1696c58d60)" style="fill: #1a6599"/>
    <path d="M 760.585634 890.097304 
L 777.21207 935.443557 
L 661.284625 935.423384 
z
" clip-path="url(#p1696c58d60)" style="fill: #175783"/>
    <path d="M 1049.747274 519.542271 
L 833.720211 548.241357 
L 823.773171 514.626822 
z
" clip-path="url(#p1696c58d60)" style="fill: #154f77"/>
    <path d="M 540.764516 901.555772 
L 625.53028 962.016335 
L 500.001521 927.573276 
z
" clip-path="url(#p1696c58d60)" style="fill: #1a6395"/>
    <path d="M 569.00759 543.29027 
L 420.461408 633.396872 
L 490.052678 629.106851 
z
" clip-path="url(#p1696c58d60)" style="fill: #15517a"/>
    <path d="M 1031.37828 459.005114 
L 823.773171 514.626822 
L 933.850566 449.037547 
z
" clip-path="url(#p1696c58d60)" style="fill: #154f77"/>
    <path d="M 1018.385568 395.552433 
L 933.850566 449.037547 
L 907.306638 416.422262 
z
" clip-path="url(#p1696c58d60)" style="fill: #1d71ab"/>
    <path d="M 770.41707 989.146901 
L 890.184302 1009.562975 
L 608.150932 975.247917 
z
" clip-path="url(#p1696c58d60)" style="fill: #113f60"/>
    <path d="M 833.720211 548.241357 
L 818.871022 619.96957 
L 821.464668 658.174633 
z
" clip-path="url(#p1696c58d60)" style="fill: #0c2f47"/>
    <path d="M 466.946275 795.78065 
L 540.764516 901.555772 
L 444.518247 861.216014 
z
" clip-path="url(#p1696c58d60)" style="fill: #1a6396"/>
    <path d="M 770.41707 989.146901 
L 777.21207 935.443557 
L 879.588451 975.069689 
z
" clip-path="url(#p1696c58d60)" style="fill: #196092"/>
    <path d="M 818.871022 619.96957 
L 903.531104 730.880425 
L 821.464668 658.174633 
z
" clip-path="url(#p1696c58d60)" style="fill: #124466"/>
    <path d="M 1018.385568 395.552433 
L 1031.37828 459.005114 
L 933.850566 449.037547 
z
" clip-path="url(#p1696c58d60)" style="fill: #144c74"/>
    <path d="M 503.52651 678.499141 
L 563.247288 641.448446 
L 490.052678 629.106851 
z
" clip-path="url(#p1696c58d60)" style="fill: #144e76"/>
    <path d="M 478.416034 513.5499 
L 569.00759 543.29027 
L 547.448694 492.323128 
z
" clip-path="url(#p1696c58d60)" style="fill: #155079"/>
    <path d="M 451.464456 932.222844 
L 540.764516 901.555772 
L 500.001521 927.573276 
z
" clip-path="url(#p1696c58d60)" style="fill: #1e74af"/>
    <path d="M 898.700074 527.602921 
L 815.191458 550.605927 
L 833.720211 548.241357 
z
" clip-path="url(#p1696c58d60)" style="fill: #0c3048"/>
    <path d="M 650.358472 453.386517 
L 694.735112 470.247748 
L 751.771231 475.376786 
z
" clip-path="url(#p1696c58d60)" style="fill: #16547f"/>
    <path d="M 898.700074 527.602921 
L 833.720211 548.241357 
L 1049.747274 519.542271 
z
" clip-path="url(#p1696c58d60)" style="fill: #0d314a"/>
    <path d="M 907.306638 416.422262 
L 1056.450608 361.600977 
L 1018.385568 395.552433 
z
" clip-path="url(#p1696c58d60)" style="fill: #1d71aa"/>
    <path d="M 823.773171 514.626822 
L 1108.274826 482.169753 
L 1049.747274 519.542271 
z
" clip-path="url(#p1696c58d60)" style="fill: #175884"/>
    <path d="M 1031.37828 459.005114 
L 1108.274826 482.169753 
L 823.773171 514.626822 
z
" clip-path="url(#p1696c58d60)" style="fill: #195e8e"/>
    <path d="M 871.553579 820.839556 
L 855.964301 852.596811 
L 760.585634 890.097304 
z
" clip-path="url(#p1696c58d60)" style="fill: #0c3048"/>
    <path d="M 469.158888 994.688149 
L 451.464456 932.222844 
L 500.001521 927.573276 
z
" clip-path="url(#p1696c58d60)" style="fill: #1e73ae"/>
    <path d="M 871.553579 820.839556 
L 903.531104 730.880425 
L 855.964301 852.596811 
z
" clip-path="url(#p1696c58d60)" style="fill: #0c2d44"/>
    <path d="M 444.518247 861.216014 
L 472.459676 717.535339 
L 451.395473 744.524199 
z
" clip-path="url(#p1696c58d60)" style="fill: #1b689d"/>
    <path d="M 833.720211 548.241357 
L 815.191458 550.605927 
L 818.871022 619.96957 
z
" clip-path="url(#p1696c58d60)" style="fill: #0c2f47"/>
    <path d="M 503.52651 678.499141 
L 472.459676 717.535339 
L 563.247288 641.448446 
z
" clip-path="url(#p1696c58d60)" style="fill: #1c6da4"/>
    <path d="M 879.588451 975.069689 
L 890.184302 1009.562975 
L 770.41707 989.146901 
z
" clip-path="url(#p1696c58d60)" style="fill: #114163"/>
    <path d="M 851.594713 489.808551 
L 751.771231 475.376786 
L 798.246369 482.717322 
z
" clip-path="url(#p1696c58d60)" style="fill: #175987"/>
    <path d="M 907.306638 416.422262 
L 751.771231 475.376786 
L 984.985793 422.075663 
z
" clip-path="url(#p1696c58d60)" style="fill: #196091"/>
    <path d="M 815.191458 550.605927 
L 898.700074 527.602921 
L 851.594713 489.808551 
z
" clip-path="url(#p1696c58d60)" style="fill: #0b2c43"/>
    <path d="M 686.836965 492.543481 
L 650.358472 453.386517 
L 547.448694 492.323128 
z
" clip-path="url(#p1696c58d60)" style="fill: #175784"/>
    <path d="M 444.518247 861.216014 
L 540.764516 901.555772 
L 451.464456 932.222844 
z
" clip-path="url(#p1696c58d60)" style="fill: #1e72ad"/>
    <path d="M 569.00759 543.29027 
L 490.052678 629.106851 
L 563.247288 641.448446 
z
" clip-path="url(#p1696c58d60)" style="fill: #175987"/>
    <path d="M 1018.385568 395.552433 
L 1121.01085 383.025048 
L 1031.37828 459.005114 
z
" clip-path="url(#p1696c58d60)" style="fill: #114264"/>
    <path d="M 1121.01085 383.025048 
L 1018.385568 395.552433 
L 1056.450608 361.600977 
z
" clip-path="url(#p1696c58d60)" style="fill: #154f78"/>
    <path d="M 694.735112 470.247748 
L 650.358472 453.386517 
L 686.836965 492.543481 
z
" clip-path="url(#p1696c58d60)" style="fill: #195f90"/>
    <path d="M 798.246369 482.717322 
L 815.191458 550.605927 
L 851.594713 489.808551 
z
" clip-path="url(#p1696c58d60)" style="fill: #0b2b41"/>
    <path d="M 751.771231 475.376786 
L 851.594713 489.808551 
L 984.985793 422.075663 
z
" clip-path="url(#p1696c58d60)" style="fill: #13486d"/>
    <path d="M 767.40498 429.483957 
L 798.246369 482.717322 
L 751.771231 475.376786 
z
" clip-path="url(#p1696c58d60)" style="fill: #134b71"/>
    <path d="M 451.464456 932.222844 
L 469.158888 994.688149 
L 387.088829 994.393637 
z
" clip-path="url(#p1696c58d60)" style="fill: #1f76b3"/>
    <path d="M 751.771231 475.376786 
L 694.735112 470.247748 
L 767.40498 429.483957 
z
" clip-path="url(#p1696c58d60)" style="fill: #1e73ae"/>
    <path d="M 907.306638 416.422262 
L 984.985793 422.075663 
L 1056.450608 361.600977 
z
" clip-path="url(#p1696c58d60)" style="fill: #196091"/>
    <path d="M 777.21207 935.443557 
L 760.585634 890.097304 
L 878.378041 966.136238 
z
" clip-path="url(#p1696c58d60)" style="fill: #114162"/>
    <path d="M 469.158888 994.688149 
L 521.652888 965.691115 
L 423.394612 1047.698778 
z
" clip-path="url(#p1696c58d60)" style="fill: #103f5f"/>
    <path d="M 569.00759 543.29027 
L 686.836965 492.543481 
L 547.448694 492.323128 
z
" clip-path="url(#p1696c58d60)" style="fill: #114061"/>
    <path d="M 798.246369 482.717322 
L 788.097053 550.050066 
L 815.191458 550.605927 
z
" clip-path="url(#p1696c58d60)" style="fill: #0a283d"/>
    <path d="M 815.191458 550.605927 
L 788.097053 550.050066 
L 818.871022 619.96957 
z
" clip-path="url(#p1696c58d60)" style="fill: #0c2e45"/>
    <path d="M 818.871022 619.96957 
L 863.799804 663.468635 
L 903.531104 730.880425 
z
" clip-path="url(#p1696c58d60)" style="fill: #114264"/>
    <path d="M 1121.01085 383.025048 
L 1108.274826 482.169753 
L 1031.37828 459.005114 
z
" clip-path="url(#p1696c58d60)" style="fill: #195e8e"/>
    <path d="M 777.21207 935.443557 
L 878.378041 966.136238 
L 879.588451 975.069689 
z
" clip-path="url(#p1696c58d60)" style="fill: #15527c"/>
    <path d="M 569.00759 543.29027 
L 563.247288 641.448446 
L 686.836965 492.543481 
z
" clip-path="url(#p1696c58d60)" style="fill: #155079"/>
    <path d="M 1049.747274 519.542271 
L 1075.285605 478.736249 
L 898.700074 527.602921 
z
" clip-path="url(#p1696c58d60)" style="fill: #0d324b"/>
    <path d="M 851.594713 489.808551 
L 898.700074 527.602921 
L 1075.285605 478.736249 
z
" clip-path="url(#p1696c58d60)" style="fill: #103c5a"/>
    <path d="M 1135.11063 456.426832 
L 1049.747274 519.542271 
L 1108.274826 482.169753 
z
" clip-path="url(#p1696c58d60)" style="fill: #0b2a40"/>
    <path d="M 855.964301 852.596811 
L 878.378041 966.136238 
L 760.585634 890.097304 
z
" clip-path="url(#p1696c58d60)" style="fill: #114061"/>
    <path d="M 788.097053 550.050066 
L 688.591474 608.660226 
L 818.871022 619.96957 
z
" clip-path="url(#p1696c58d60)" style="fill: #0c2d44"/>
    <path d="M 444.518247 861.216014 
L 433.487876 758.215997 
L 472.459676 717.535339 
z
" clip-path="url(#p1696c58d60)" style="fill: #1e71ab"/>
    <path d="M 890.184302 1009.562975 
L 879.588451 975.069689 
L 878.378041 966.136238 
z
" clip-path="url(#p1696c58d60)" style="fill: #0e3651"/>
    <path d="M 686.836965 492.543481 
L 563.247288 641.448446 
L 726.693203 544.265532 
z
" clip-path="url(#p1696c58d60)" style="fill: #0f3b59"/>
    <path d="M 726.693203 544.265532 
L 688.591474 608.660226 
L 788.097053 550.050066 
z
" clip-path="url(#p1696c58d60)" style="fill: #0b2a3f"/>
    <path d="M 893.414962 785.929831 
L 855.964301 852.596811 
L 903.531104 730.880425 
z
" clip-path="url(#p1696c58d60)" style="fill: #0c2e46"/>
    <path d="M 890.184302 1009.562975 
L 719.07694 1061.118345 
L 521.652888 965.691115 
z
" clip-path="url(#p1696c58d60)" style="fill: #114060"/>
    <path d="M 1056.450608 361.600977 
L 1096.835486 361.344418 
L 1121.01085 383.025048 
z
" clip-path="url(#p1696c58d60)" style="fill: #15517a"/>
    <path d="M 387.088829 994.393637 
L 403.958442 963.641991 
L 451.464456 932.222844 
z
" clip-path="url(#p1696c58d60)" style="fill: #1e71ac"/>
    <path d="M 726.693203 544.265532 
L 563.247288 641.448446 
L 688.591474 608.660226 
z
" clip-path="url(#p1696c58d60)" style="fill: #13476c"/>
    <path d="M 343.360361 893.151663 
L 444.518247 861.216014 
L 451.464456 932.222844 
z
" clip-path="url(#p1696c58d60)" style="fill: #1e72ac"/>
    <path d="M 984.985793 422.075663 
L 1096.835486 361.344418 
L 1056.450608 361.600977 
z
" clip-path="url(#p1696c58d60)" style="fill: #1b689e"/>
    <path d="M 1121.01085 383.025048 
L 1135.11063 456.426832 
L 1108.274826 482.169753 
z
" clip-path="url(#p1696c58d60)" style="fill: #0e3652"/>
    <path d="M 851.594713 489.808551 
L 1055.222015 416.42848 
L 984.985793 422.075663 
z
" clip-path="url(#p1696c58d60)" style="fill: #196193"/>
    <path d="M 563.247288 641.448446 
L 472.459676 717.535339 
L 536.403124 662.63022 
z
" clip-path="url(#p1696c58d60)" style="fill: #1d6fa8"/>
    <path d="M 874.57514 699.910039 
L 903.531104 730.880425 
L 863.799804 663.468635 
z
" clip-path="url(#p1696c58d60)" style="fill: #0e3754"/>
    <path d="M 686.836965 492.543481 
L 744.436836 462.912796 
L 694.735112 470.247748 
z
" clip-path="url(#p1696c58d60)" style="fill: #1b669b"/>
    <path d="M 387.088829 994.393637 
L 469.158888 994.688149 
L 423.394612 1047.698778 
z
" clip-path="url(#p1696c58d60)" style="fill: #13476b"/>
    <path d="M 1075.285605 478.736249 
L 1049.747274 519.542271 
L 1135.11063 456.426832 
z
" clip-path="url(#p1696c58d60)" style="fill: #0b2a3f"/>
    <path d="M 767.40498 429.483957 
L 909.431883 402.09692 
L 798.246369 482.717322 
z
" clip-path="url(#p1696c58d60)" style="fill: #185b8a"/>
    <path d="M 798.246369 482.717322 
L 911.937255 483.186829 
L 788.097053 550.050066 
z
" clip-path="url(#p1696c58d60)" style="fill: #103e5e"/>
    <path d="M 433.487876 758.215997 
L 444.518247 861.216014 
L 357.844264 799.902572 
z
" clip-path="url(#p1696c58d60)" style="fill: #1f77b3"/>
    <path d="M 686.836965 492.543481 
L 726.693203 544.265532 
L 744.436836 462.912796 
z
" clip-path="url(#p1696c58d60)" style="fill: #15517a"/>
    <path d="M 472.459676 717.535339 
L 433.487876 758.215997 
L 536.403124 662.63022 
z
" clip-path="url(#p1696c58d60)" style="fill: #1d6ea6"/>
    <path d="M 688.591474 608.660226 
L 563.247288 641.448446 
L 536.403124 662.63022 
z
" clip-path="url(#p1696c58d60)" style="fill: #1b669a"/>
    <path d="M 1075.285605 478.736249 
L 1055.222015 416.42848 
L 851.594713 489.808551 
z
" clip-path="url(#p1696c58d60)" style="fill: #113f60"/>
    <path d="M 818.871022 619.96957 
L 688.591474 608.660226 
L 734.451915 640.363828 
z
" clip-path="url(#p1696c58d60)" style="fill: #15517a"/>
    <path d="M 451.464456 932.222844 
L 403.958442 963.641991 
L 343.360361 893.151663 
z
" clip-path="url(#p1696c58d60)" style="fill: #1b679c"/>
    <path d="M 1096.835486 361.344418 
L 1135.11063 456.426832 
L 1121.01085 383.025048 
z
" clip-path="url(#p1696c58d60)" style="fill: #0d324c"/>
    <path d="M 863.799804 663.468635 
L 818.871022 619.96957 
L 874.57514 699.910039 
z
" clip-path="url(#p1696c58d60)" style="fill: #114061"/>
    <path d="M 343.360361 893.151663 
L 357.844264 799.902572 
L 444.518247 861.216014 
z
" clip-path="url(#p1696c58d60)" style="fill: #1e73ae"/>
    <path d="M 903.531104 730.880425 
L 874.57514 699.910039 
L 893.414962 785.929831 
z
" clip-path="url(#p1696c58d60)" style="fill: #0d314b"/>
    <path d="M 694.735112 470.247748 
L 830.644747 379.218863 
L 767.40498 429.483957 
z
" clip-path="url(#p1696c58d60)" style="fill: #1d6fa8"/>
    <path d="M 963.690406 856.760659 
L 878.378041 966.136238 
L 855.964301 852.596811 
z
" clip-path="url(#p1696c58d60)" style="fill: #144e76"/>
    <path d="M 984.985793 422.075663 
L 1055.222015 416.42848 
L 1096.835486 361.344418 
z
" clip-path="url(#p1696c58d60)" style="fill: #196092"/>
    <path d="M 893.414962 785.929831 
L 963.690406 856.760659 
L 855.964301 852.596811 
z
" clip-path="url(#p1696c58d60)" style="fill: #185b8a"/>
    <path d="M 906.145396 498.449189 
L 726.693203 544.265532 
L 788.097053 550.050066 
z
" clip-path="url(#p1696c58d60)" style="fill: #0e344f"/>
    <path d="M 909.431883 402.09692 
L 911.937255 483.186829 
L 798.246369 482.717322 
z
" clip-path="url(#p1696c58d60)" style="fill: #103f5f"/>
    <path d="M 1096.835486 361.344418 
L 1055.222015 416.42848 
L 1135.11063 456.426832 
z
" clip-path="url(#p1696c58d60)" style="fill: #0b2c43"/>
    <path d="M 387.088829 994.393637 
L 423.394612 1047.698778 
L 403.958442 963.641991 
z
" clip-path="url(#p1696c58d60)" style="fill: #1a6497"/>
    <path d="M 734.451915 640.363828 
L 874.57514 699.910039 
L 818.871022 619.96957 
z
" clip-path="url(#p1696c58d60)" style="fill: #12466a"/>
    <path d="M 1055.222015 416.42848 
L 1075.285605 478.736249 
L 1135.11063 456.426832 
z
" clip-path="url(#p1696c58d60)" style="fill: #0b2b40"/>
    <path d="M 734.451915 640.363828 
L 688.591474 608.660226 
L 536.403124 662.63022 
z
" clip-path="url(#p1696c58d60)" style="fill: #175885"/>
    <path d="M 744.436836 462.912796 
L 830.644747 379.218863 
L 694.735112 470.247748 
z
" clip-path="url(#p1696c58d60)" style="fill: #1b669b"/>
    <path d="M 878.378041 966.136238 
L 963.690406 856.760659 
L 905.831356 965.829134 
z
" clip-path="url(#p1696c58d60)" style="fill: #0e3652"/>
    <path d="M 909.431883 402.09692 
L 767.40498 429.483957 
L 830.644747 379.218863 
z
" clip-path="url(#p1696c58d60)" style="fill: #1a6599"/>
    <path d="M 744.436836 462.912796 
L 726.693203 544.265532 
L 859.325195 486.114563 
z
" clip-path="url(#p1696c58d60)" style="fill: #144b71"/>
    <path d="M 965.090714 800.82937 
L 963.690406 856.760659 
L 893.414962 785.929831 
z
" clip-path="url(#p1696c58d60)" style="fill: #16537e"/>
    <path d="M 423.394612 1047.698778 
L 521.652888 965.691115 
L 477.702068 1081.934444 
z
" clip-path="url(#p1696c58d60)" style="fill: #113f60"/>
    <path d="M 878.378041 966.136238 
L 842.945029 1061.116063 
L 890.184302 1009.562975 
z
" clip-path="url(#p1696c58d60)" style="fill: #0c2d44"/>
    <path d="M 911.937255 483.186829 
L 906.145396 498.449189 
L 788.097053 550.050066 
z
" clip-path="url(#p1696c58d60)" style="fill: #0d3049"/>
    <path d="M 357.844264 799.902572 
L 343.360361 893.151663 
L 348.450058 789.815056 
z
" clip-path="url(#p1696c58d60)" style="fill: #1c6ca4"/>
    <path d="M 432.099035 683.461313 
L 433.487876 758.215997 
L 357.844264 799.902572 
z
" clip-path="url(#p1696c58d60)" style="fill: #1e75b1"/>
    <path d="M 343.360361 893.151663 
L 403.958442 963.641991 
L 409.141523 1017.97361 
z
" clip-path="url(#p1696c58d60)" style="fill: #196193"/>
    <path d="M 536.403124 662.63022 
L 433.487876 758.215997 
L 432.099035 683.461313 
z
" clip-path="url(#p1696c58d60)" style="fill: #1e75b1"/>
    <path d="M 970.149678 874.527768 
L 963.690406 856.760659 
L 965.090714 800.82937 
z
" clip-path="url(#p1696c58d60)" style="fill: #0d334d"/>
    <path d="M 719.07694 1061.118345 
L 668.241326 1087.610932 
L 521.652888 965.691115 
z
" clip-path="url(#p1696c58d60)" style="fill: #103f60"/>
    <path d="M 859.325195 486.114563 
L 726.693203 544.265532 
L 906.145396 498.449189 
z
" clip-path="url(#p1696c58d60)" style="fill: #103c5b"/>
    <path d="M 911.937255 483.186829 
L 909.431883 402.09692 
L 1004.849368 429.125506 
z
" clip-path="url(#p1696c58d60)" style="fill: #16547e"/>
    <path d="M 922.166542 907.270573 
L 905.831356 965.829134 
L 963.690406 856.760659 
z
" clip-path="url(#p1696c58d60)" style="fill: #0b2a40"/>
    <path d="M 348.450058 789.815056 
L 343.360361 893.151663 
L 337.699186 889.884071 
z
" clip-path="url(#p1696c58d60)" style="fill: #1c6ba1"/>
    <path d="M 423.394612 1047.698778 
L 409.141523 1017.97361 
L 403.958442 963.641991 
z
" clip-path="url(#p1696c58d60)" style="fill: #1a6598"/>
    <path d="M 343.360361 893.151663 
L 409.141523 1017.97361 
L 337.699186 889.884071 
z
" clip-path="url(#p1696c58d60)" style="fill: #196091"/>
    <path d="M 874.57514 699.910039 
L 876.631146 776.168751 
L 893.414962 785.929831 
z
" clip-path="url(#p1696c58d60)" style="fill: #0d314b"/>
    <path d="M 1004.849368 429.125506 
L 909.431883 402.09692 
L 967.41555 376.223895 
z
" clip-path="url(#p1696c58d60)" style="fill: #165682"/>
    <path d="M 432.099035 683.461313 
L 357.844264 799.902572 
L 348.450058 789.815056 
z
" clip-path="url(#p1696c58d60)" style="fill: #1e72ac"/>
    <path d="M 893.414962 785.929831 
L 876.631146 776.168751 
L 965.090714 800.82937 
z
" clip-path="url(#p1696c58d60)" style="fill: #175884"/>
    <path d="M 967.41555 376.223895 
L 909.431883 402.09692 
L 830.644747 379.218863 
z
" clip-path="url(#p1696c58d60)" style="fill: #1b689e"/>
    <path d="M 905.831356 965.829134 
L 839.276973 1009.78073 
L 878.378041 966.136238 
z
" clip-path="url(#p1696c58d60)" style="fill: #0d344e"/>
    <path d="M 874.57514 699.910039 
L 734.451915 640.363828 
L 829.79244 688.630494 
z
" clip-path="url(#p1696c58d60)" style="fill: #144d74"/>
    <path d="M 970.149678 874.527768 
L 922.166542 907.270573 
L 963.690406 856.760659 
z
" clip-path="url(#p1696c58d60)" style="fill: #0d344e"/>
    <path d="M 842.945029 1061.116063 
L 719.07694 1061.118345 
L 890.184302 1009.562975 
z
" clip-path="url(#p1696c58d60)" style="fill: #113f60"/>
    <path d="M 620.625883 624.339228 
L 734.451915 640.363828 
L 536.403124 662.63022 
z
" clip-path="url(#p1696c58d60)" style="fill: #1b699e"/>
    <path d="M 477.702068 1081.934444 
L 521.652888 965.691115 
L 668.241326 1087.610932 
z
" clip-path="url(#p1696c58d60)" style="fill: #114060"/>
    <path d="M 744.436836 462.912796 
L 940.621453 393.419417 
L 830.644747 379.218863 
z
" clip-path="url(#p1696c58d60)" style="fill: #13486c"/>
    <path d="M 906.145396 498.449189 
L 911.937255 483.186829 
L 1004.849368 429.125506 
z
" clip-path="url(#p1696c58d60)" style="fill: #0d324b"/>
    <path d="M 859.325195 486.114563 
L 940.621453 393.419417 
L 744.436836 462.912796 
z
" clip-path="url(#p1696c58d60)" style="fill: #15517a"/>
    <path d="M 965.090714 800.82937 
L 922.166542 907.270573 
L 970.149678 874.527768 
z
" clip-path="url(#p1696c58d60)" style="fill: #0b2c42"/>
    <path d="M 967.41555 376.223895 
L 1006.677446 421.385467 
L 1004.849368 429.125506 
z
" clip-path="url(#p1696c58d60)" style="fill: #114061"/>
    <path d="M 1004.849368 429.125506 
L 1006.677446 421.385467 
L 906.145396 498.449189 
z
" clip-path="url(#p1696c58d60)" style="fill: #0b293e"/>
    <path d="M 432.099035 683.461313 
L 503.26559 643.043415 
L 536.403124 662.63022 
z
" clip-path="url(#p1696c58d60)" style="fill: #1d70aa"/>
    <path d="M 940.621453 393.419417 
L 967.41555 376.223895 
L 830.644747 379.218863 
z
" clip-path="url(#p1696c58d60)" style="fill: #175784"/>
    <path d="M 839.276973 1009.78073 
L 842.945029 1061.116063 
L 878.378041 966.136238 
z
" clip-path="url(#p1696c58d60)" style="fill: #0c2d44"/>
    <path d="M 348.450058 789.815056 
L 337.699186 889.884071 
L 348.193405 829.238648 
z
" clip-path="url(#p1696c58d60)" style="fill: #1b689e"/>
    <path d="M 967.41555 376.223895 
L 940.621453 393.419417 
L 1006.677446 421.385467 
z
" clip-path="url(#p1696c58d60)" style="fill: #0f3957"/>
    <path d="M 409.141523 1017.97361 
L 423.394612 1047.698778 
L 448.943885 1005.46045 
z
" clip-path="url(#p1696c58d60)" style="fill: #155079"/>
    <path d="M 922.166542 907.270573 
L 839.276973 1009.78073 
L 905.831356 965.829134 
z
" clip-path="url(#p1696c58d60)" style="fill: #0a273c"/>
    <path d="M 409.141523 1017.97361 
L 404.670401 961.882075 
L 337.699186 889.884071 
z
" clip-path="url(#p1696c58d60)" style="fill: #175986"/>
    <path d="M 829.79244 688.630494 
L 734.451915 640.363828 
L 735.631209 645.489118 
z
" clip-path="url(#p1696c58d60)" style="fill: #144c73"/>
    <path d="M 940.621453 393.419417 
L 859.325195 486.114563 
L 906.145396 498.449189 
z
" clip-path="url(#p1696c58d60)" style="fill: #0e3652"/>
    <path d="M 503.26559 643.043415 
L 620.625883 624.339228 
L 536.403124 662.63022 
z
" clip-path="url(#p1696c58d60)" style="fill: #1c6aa0"/>
    <path d="M 940.621453 393.419417 
L 906.145396 498.449189 
L 1006.677446 421.385467 
z
" clip-path="url(#p1696c58d60)" style="fill: #0b293f"/>
    <path d="M 899.60631 835.133238 
L 965.090714 800.82937 
L 876.631146 776.168751 
z
" clip-path="url(#p1696c58d60)" style="fill: #0f3b59"/>
    <path d="M 829.79244 688.630494 
L 845.982377 768.389213 
L 874.57514 699.910039 
z
" clip-path="url(#p1696c58d60)" style="fill: #0e3651"/>
    <path d="M 734.451915 640.363828 
L 620.625883 624.339228 
L 735.631209 645.489118 
z
" clip-path="url(#p1696c58d60)" style="fill: #175885"/>
    <path d="M 874.57514 699.910039 
L 845.982377 768.389213 
L 876.631146 776.168751 
z
" clip-path="url(#p1696c58d60)" style="fill: #0d324b"/>
    <path d="M 409.141523 1017.97361 
L 448.943885 1005.46045 
L 404.670401 961.882075 
z
" clip-path="url(#p1696c58d60)" style="fill: #134a70"/>
    <path d="M 388.420395 786.203894 
L 348.450058 789.815056 
L 348.193405 829.238648 
z
" clip-path="url(#p1696c58d60)" style="fill: #1b669b"/>
    <path d="M 870.288984 895.546406 
L 922.166542 907.270573 
L 965.090714 800.82937 
z
" clip-path="url(#p1696c58d60)" style="fill: #0b2a3f"/>
    <path d="M 452.024085 735.281149 
L 432.099035 683.461313 
L 348.450058 789.815056 
z
" clip-path="url(#p1696c58d60)" style="fill: #1b669a"/>
    <path d="M 842.945029 1061.116063 
L 839.276973 1009.78073 
L 719.07694 1061.118345 
z
" clip-path="url(#p1696c58d60)" style="fill: #0c2f48"/>
    <path d="M 337.699186 889.884071 
L 398.572423 877.356469 
L 348.193405 829.238648 
z
" clip-path="url(#p1696c58d60)" style="fill: #185c8b"/>
    <path d="M 448.943885 1005.46045 
L 423.394612 1047.698778 
L 477.702068 1081.934444 
z
" clip-path="url(#p1696c58d60)" style="fill: #196091"/>
    <path d="M 398.572423 877.356469 
L 337.699186 889.884071 
L 404.670401 961.882075 
z
" clip-path="url(#p1696c58d60)" style="fill: #175885"/>
    <path d="M 899.60631 835.133238 
L 870.288984 895.546406 
L 965.090714 800.82937 
z
" clip-path="url(#p1696c58d60)" style="fill: #0b293e"/>
    <path d="M 839.276973 1009.78073 
L 922.166542 907.270573 
L 852.706284 972.310267 
z
" clip-path="url(#p1696c58d60)" style="fill: #0a283c"/>
    <path d="M 388.420395 786.203894 
L 452.024085 735.281149 
L 348.450058 789.815056 
z
" clip-path="url(#p1696c58d60)" style="fill: #1b689e"/>
    <path d="M 839.276973 1009.78073 
L 737.279988 1031.796431 
L 719.07694 1061.118345 
z
" clip-path="url(#p1696c58d60)" style="fill: #0b293e"/>
    <path d="M 432.099035 683.461313 
L 452.024085 735.281149 
L 503.26559 643.043415 
z
" clip-path="url(#p1696c58d60)" style="fill: #1a6498"/>
    <path d="M 845.982377 768.389213 
L 899.60631 835.133238 
L 876.631146 776.168751 
z
" clip-path="url(#p1696c58d60)" style="fill: #0f3854"/>
    <path d="M 404.670401 961.882075 
L 448.943885 1005.46045 
L 446.70849 1004.689186 
z
" clip-path="url(#p1696c58d60)" style="fill: #175886"/>
    <path d="M 735.631209 645.489118 
L 833.811639 707.365548 
L 829.79244 688.630494 
z
" clip-path="url(#p1696c58d60)" style="fill: #13476c"/>
    <path d="M 388.420395 786.203894 
L 348.193405 829.238648 
L 398.572423 877.356469 
z
" clip-path="url(#p1696c58d60)" style="fill: #185c8b"/>
    <path d="M 833.811639 707.365548 
L 845.982377 768.389213 
L 829.79244 688.630494 
z
" clip-path="url(#p1696c58d60)" style="fill: #0e344f"/>
    <path d="M 870.288984 895.546406 
L 852.706284 972.310267 
L 922.166542 907.270573 
z
" clip-path="url(#p1696c58d60)" style="fill: #0a273a"/>
    <path d="M 852.706284 972.310267 
L 737.279988 1031.796431 
L 839.276973 1009.78073 
z
" clip-path="url(#p1696c58d60)" style="fill: #0a2639"/>
    <path d="M 448.943885 1005.46045 
L 477.702068 1081.934444 
L 446.70849 1004.689186 
z
" clip-path="url(#p1696c58d60)" style="fill: #1a6395"/>
    <path d="M 404.670401 961.882075 
L 446.70849 1004.689186 
L 398.572423 877.356469 
z
" clip-path="url(#p1696c58d60)" style="fill: #175a87"/>
    <path d="M 719.07694 1061.118345 
L 737.279988 1031.796431 
L 668.241326 1087.610932 
z
" clip-path="url(#p1696c58d60)" style="fill: #0b283d"/>
    <path d="M 620.625883 624.339228 
L 663.459475 679.204257 
L 735.631209 645.489118 
z
" clip-path="url(#p1696c58d60)" style="fill: #144d74"/>
    <path d="M 532.378704 715.3603 
L 620.625883 624.339228 
L 503.26559 643.043415 
z
" clip-path="url(#p1696c58d60)" style="fill: #165682"/>
    <path d="M 735.631209 645.489118 
L 663.459475 679.204257 
L 833.811639 707.365548 
z
" clip-path="url(#p1696c58d60)" style="fill: #124467"/>
    <path d="M 845.982377 768.389213 
L 811.684415 797.17856 
L 899.60631 835.133238 
z
" clip-path="url(#p1696c58d60)" style="fill: #0d314a"/>
    <path d="M 452.024085 735.281149 
L 532.378704 715.3603 
L 503.26559 643.043415 
z
" clip-path="url(#p1696c58d60)" style="fill: #185d8d"/>
    <path d="M 870.288984 895.546406 
L 899.60631 835.133238 
L 811.684415 797.17856 
z
" clip-path="url(#p1696c58d60)" style="fill: #0b2a3f"/>
    <path d="M 833.811639 707.365548 
L 811.684415 797.17856 
L 845.982377 768.389213 
z
" clip-path="url(#p1696c58d60)" style="fill: #0b2b41"/>
    <path d="M 388.420395 786.203894 
L 398.572423 877.356469 
L 474.464135 802.533028 
z
" clip-path="url(#p1696c58d60)" style="fill: #185b89"/>
    <path d="M 620.625883 624.339228 
L 532.378704 715.3603 
L 663.459475 679.204257 
z
" clip-path="url(#p1696c58d60)" style="fill: #16547f"/>
    <path d="M 852.706284 972.310267 
L 697.938631 971.300349 
L 737.279988 1031.796431 
z
" clip-path="url(#p1696c58d60)" style="fill: #0a2538"/>
    <path d="M 697.938631 971.300349 
L 852.706284 972.310267 
L 870.288984 895.546406 
z
" clip-path="url(#p1696c58d60)" style="fill: #0a2539"/>
    <path d="M 388.420395 786.203894 
L 474.464135 802.533028 
L 452.024085 735.281149 
z
" clip-path="url(#p1696c58d60)" style="fill: #185b8a"/>
    <path d="M 559.484923 1094.3537 
L 477.702068 1081.934444 
L 668.241326 1087.610932 
z
" clip-path="url(#p1696c58d60)" style="fill: #114060"/>
    <path d="M 477.702068 1081.934444 
L 525.407136 939.849114 
L 446.70849 1004.689186 
z
" clip-path="url(#p1696c58d60)" style="fill: #155078"/>
    <path d="M 697.938631 971.300349 
L 668.241326 1087.610932 
L 737.279988 1031.796431 
z
" clip-path="url(#p1696c58d60)" style="fill: #092436"/>
    <path d="M 526.747873 882.26622 
L 398.572423 877.356469 
L 446.70849 1004.689186 
z
" clip-path="url(#p1696c58d60)" style="fill: #144c72"/>
    <path d="M 870.288984 895.546406 
L 811.684415 797.17856 
L 787.85432 868.959849 
z
" clip-path="url(#p1696c58d60)" style="fill: #0b293e"/>
    <path d="M 699.761461 786.038922 
L 833.811639 707.365548 
L 663.459475 679.204257 
z
" clip-path="url(#p1696c58d60)" style="fill: #0f3a58"/>
    <path d="M 697.938631 971.300349 
L 870.288984 895.546406 
L 787.85432 868.959849 
z
" clip-path="url(#p1696c58d60)" style="fill: #092436"/>
    <path d="M 532.378704 715.3603 
L 452.024085 735.281149 
L 474.464135 802.533028 
z
" clip-path="url(#p1696c58d60)" style="fill: #165480"/>
    <path d="M 833.811639 707.365548 
L 699.761461 786.038922 
L 811.684415 797.17856 
z
" clip-path="url(#p1696c58d60)" style="fill: #0c2f47"/>
    <path d="M 559.484923 1094.3537 
L 504.99351 979.784136 
L 477.702068 1081.934444 
z
" clip-path="url(#p1696c58d60)" style="fill: #124467"/>
    <path d="M 526.747873 882.26622 
L 446.70849 1004.689186 
L 525.407136 939.849114 
z
" clip-path="url(#p1696c58d60)" style="fill: #144c72"/>
    <path d="M 474.464135 802.533028 
L 398.572423 877.356469 
L 526.747873 882.26622 
z
" clip-path="url(#p1696c58d60)" style="fill: #144d75"/>
    <path d="M 691.435171 1001.165175 
L 668.241326 1087.610932 
L 697.938631 971.300349 
z
" clip-path="url(#p1696c58d60)" style="fill: #0c2f47"/>
    <path d="M 477.702068 1081.934444 
L 504.99351 979.784136 
L 525.407136 939.849114 
z
" clip-path="url(#p1696c58d60)" style="fill: #1d6fa7"/>
    <path d="M 616.781052 998.620284 
L 559.484923 1094.3537 
L 668.241326 1087.610932 
z
" clip-path="url(#p1696c58d60)" style="fill: #0a283d"/>
    <path d="M 699.761461 786.038922 
L 663.459475 679.204257 
L 532.378704 715.3603 
z
" clip-path="url(#p1696c58d60)" style="fill: #114263"/>
    <path d="M 787.85432 868.959849 
L 631.992854 934.379837 
L 697.938631 971.300349 
z
" clip-path="url(#p1696c58d60)" style="fill: #0b293e"/>
    <path d="M 699.761461 786.038922 
L 787.85432 868.959849 
L 811.684415 797.17856 
z
" clip-path="url(#p1696c58d60)" style="fill: #0b2c43"/>
    <path d="M 532.378704 715.3603 
L 474.464135 802.533028 
L 699.761461 786.038922 
z
" clip-path="url(#p1696c58d60)" style="fill: #114061"/>
    <path d="M 691.435171 1001.165175 
L 616.781052 998.620284 
L 668.241326 1087.610932 
z
" clip-path="url(#p1696c58d60)" style="fill: #0a273b"/>
    <path d="M 526.747873 882.26622 
L 525.407136 939.849114 
L 631.992854 934.379837 
z
" clip-path="url(#p1696c58d60)" style="fill: #0e354f"/>
    <path d="M 699.761461 786.038922 
L 631.992854 934.379837 
L 787.85432 868.959849 
z
" clip-path="url(#p1696c58d60)" style="fill: #0c2c43"/>
    <path d="M 474.464135 802.533028 
L 526.747873 882.26622 
L 699.761461 786.038922 
z
" clip-path="url(#p1696c58d60)" style="fill: #103e5e"/>
    <path d="M 697.938631 971.300349 
L 631.992854 934.379837 
L 626.915491 943.751685 
z
" clip-path="url(#p1696c58d60)" style="fill: #114162"/>
    <path d="M 626.915491 943.751685 
L 691.435171 1001.165175 
L 697.938631 971.300349 
z
" clip-path="url(#p1696c58d60)" style="fill: #0d334d"/>
    <path d="M 504.99351 979.784136 
L 559.484923 1094.3537 
L 616.781052 998.620284 
z
" clip-path="url(#p1696c58d60)" style="fill: #0e3652"/>
    <path d="M 699.761461 786.038922 
L 526.747873 882.26622 
L 631.992854 934.379837 
z
" clip-path="url(#p1696c58d60)" style="fill: #0d324c"/>
    <path d="M 525.407136 939.849114 
L 626.915491 943.751685 
L 631.992854 934.379837 
z
" clip-path="url(#p1696c58d60)" style="fill: #195e8f"/>
    <path d="M 525.407136 939.849114 
L 504.99351 979.784136 
L 626.915491 943.751685 
z
" clip-path="url(#p1696c58d60)" style="fill: #175885"/>
    <path d="M 626.915491 943.751685 
L 616.781052 998.620284 
L 691.435171 1001.165175 
z
" clip-path="url(#p1696c58d60)" style="fill: #0b293d"/>
    <path d="M 626.915491 943.751685 
L 504.99351 979.784136 
L 616.781052 998.620284 
z
" clip-path="url(#p1696c58d60)" style="fill: #0f3956"/>
   </g>
  </g>
 </g>
 <defs>
  <clipPath id="p1696c58d60">
   <rect x="10.8" y="10.8" width="1418.4" height="1418.4"/>
  </clipPath>
 </defs>
</svg>
